<svg xmlns="http://www.w3.org/2000/svg">
<defs>
<font id="Simpsonfont" horiz-adv-x="1106" >
  <font-face 
    font-family="Simpsonfont"
    font-weight="400"
    font-stretch="normal"
    units-per-em="2048"
    panose-1="2 0 5 0 0 0 0 0 0 0"
    ascent="1638"
    descent="-410"
    x-height="1211"
    cap-height="1635"
    bbox="-186 -457 2541.64 2339.51"
    underline-thickness="150"
    underline-position="-142"
    unicode-range="U+001D-U+2265"
  />
<missing-glyph horiz-adv-x="2459" 
d="M421 417v325h66v-96q11 11 24 17q14 6 28 6q80 0 80 -102v-150h-66v145q0 41 -33 41t-33 -41v-145h-66zM731 485q12 -5 22 -5t22 5q9 4 18 13q7 7 12 19q4 11 4 24q0 14 -4 23q-5 12 -12 19q-8 10 -18 14q-9 4 -22 4t-22 -4q-10 -4 -18 -14q-7 -7 -12 -19t-5 -23t5 -24
q5 -12 12 -19q9 -9 18 -13zM877 671v-254h-65v33h-2q-16 -33 -66 -33q-24 -1 -45 9q-22 11 -38 26q-16 16 -25 39q-10 22 -9 47q-1 24 8 48q10 24 25 41q16 18 38 28q20 10 46 10q46 0 73 -29zM896 671h65v-41q7 18 13 27q9 12 15 16q12 6 22 7q16 2 28 2l-21 -76
q-27 0 -38 -12q-11 -13 -11 -41v-136h-73v254zM1046 742h72v-185h1l53 113h87l-63 -124l76 -129h-89l-64 110h-1v-110h-72v325zM1300 495q22 -22 52 -22q32 0 32 19q0 11 -18 15q-9 4 -19 5q-10 2 -21 6q-9 3 -20 8q-8 4 -17 14q-6 6 -11 21q-4 11 -4 29q0 20 7 34
q7 13 20 24q12 11 28 15q15 4 35 4q21 0 42 -9q20 -9 36 -24l-39 -41q-17 14 -38 14q-24 0 -24 -14q0 -13 17 -18q10 -3 30 -7q18 -5 31 -12t24 -23q10 -14 8 -40q0 -21 -7 -35t-21 -25q-12 -10 -30 -16q-18 -5 -35 -5q-19 0 -27 1q-12 1 -23 6l-11 5l-11 5l-11 8l-12 8z
M1459 417v325h67v-96q9 11 23 17t28 6q81 0 81 -102v-150h-67v145q0 41 -33 41q-32 0 -32 -41v-145h-67zM1796 482q23 0 42 18q18 17 18 42q0 10 -5 22q-4 11 -13 19q-8 9 -19 13q-12 5 -23 5q-10 0 -22 -5q-10 -4 -19 -13q-8 -8 -13 -19q-5 -12 -5 -22q0 -25 18 -42
q20 -18 41 -18zM1705 452q-18 17 -29 41q-11 25 -10 49q0 26 11 50q12 25 28 40q19 17 42 26t49 9t50 -9q21 -9 42 -26q18 -17 29 -40q10 -21 10 -50t-10 -50q-11 -23 -29 -40q-19 -18 -42 -27q-23 -10 -50 -10q-25 0 -48 10q-23 9 -43 27zM2102 586q-23 17 -47 17

<glyph glyph-name=".notdef" horiz-adv-x="2459" 
d="M421 417v325h66v-96q11 11 24 17q14 6 28 6q80 0 80 -102v-150h-66v145q0 41 -33 41t-33 -41v-145h-66zM731 485q12 -5 22 -5t22 5q9 4 18 13q7 7 12 19q4 11 4 24q0 14 -4 23q-5 12 -12 19q-8 10 -18 14q-9 4 -22 4t-22 -4q-10 -4 -18 -14q-7 -7 -12 -19t-5 -23t5 -24
q5 -12 12 -19q9 -9 18 -13zM877 671v-254h-65v33h-2q-16 -33 -66 -33q-24 -1 -45 9q-22 11 -38 26q-16 16 -25 39q-10 22 -9 47q-1 24 8 48q10 24 25 41q16 18 38 28q20 10 46 10q46 0 73 -29zM896 671h65v-41q7 18 13 27q9 12 15 16q12 6 22 7q16 2 28 2l-21 -76
q-27 0 -38 -12q-11 -13 -11 -41v-136h-73v254zM1046 742h72v-185h1l53 113h87l-63 -124l76 -129h-89l-64 110h-1v-110h-72v325zM1300 495q22 -22 52 -22q32 0 32 19q0 11 -18 15q-9 4 -19 5q-10 2 -21 6q-9 3 -20 8q-8 4 -17 14q-6 6 -11 21q-4 11 -4 29q0 20 7 34
q7 13 20 24q12 11 28 15q15 4 35 4q21 0 42 -9q20 -9 36 -24l-39 -41q-17 14 -38 14q-24 0 -24 -14q0 -13 17 -18q10 -3 30 -7q18 -5 31 -12t24 -23q10 -14 8 -40q0 -21 -7 -35t-21 -25q-12 -10 -30 -16q-18 -5 -35 -5q-19 0 -27 1q-12 1 -23 6l-11 5l-11 5l-11 8l-12 8z
M1459 417v325h67v-96q9 11 23 17t28 6q81 0 81 -102v-150h-67v145q0 41 -33 41q-32 0 -32 -41v-145h-67zM1796 482q23 0 42 18q18 17 18 42q0 10 -5 22q-4 11 -13 19q-8 9 -19 13q-12 5 -23 5q-10 0 -22 -5q-10 -4 -19 -13q-8 -8 -13 -19q-5 -12 -5 -22q0 -25 18 -42
q20 -18 41 -18zM1705 452q-18 17 -29 41q-11 25 -10 49q0 26 11 50q12 25 28 40q19 17 42 26t49 9t50 -9q21 -9 42 -26q18 -17 29 -40q10 -21 10 -50t-10 -50q-11 -23 -29 -40q-19 -18 -42 -27q-23 -10 -50 -10q-25 0 -48 10q-23 9 -43 27zM2102 586q-23 17 -47 17
q-25 0 -42 -17t-17 -42q0 -13 5 -26q4 -11 12 -22q8 -10 18 -14q12 -5 25 -5q28 0 47 18v-72q-14 -8 -25 -9q-16 -2 -23 -2q-29 -2 -53 9q-26 11 -42 28q-17 16 -27 40q-10 22 -9 46q0 29 9 54q11 26 28 42q18 18 42 27t52 9q28 3 47 -7v-74zM2122 742h72v-185h1l52 113h88
l-64 -124l76 -129h-88l-64 110h-1v-110h-72v325zM2382 768q13 0 22 -9t9 -22t-9 -22t-22 -9t-22 9t-9 22t9 22t22 9zM2382 700q14 0 25 11t11 26q0 14 -11 25t-25 11q-15 0 -26 -11q-10 -10 -10 -25q0 -16 10 -26q11 -11 26 -11zM2371 740h17l3 3q1 1 1 3q0 3 -2 5t-6 2h-13
v-13zM2365 717v40h18q7 0 8 -1q4 -2 5 -3q2 -4 2 -7q0 -4 -3 -7t-9 -3q2 -2 4 -2l2 -3l2 -3l7 -11h-7l-5 9l-2 3l-2 2l-3 3q-1 1 -2 1h-9v-18h-6zM1403 1369l1 1zM1285 1445v14l-6 -21q5 -5 7 -8zM1487 1188q0 -31 -31 -90q-4 -24 -21 -41q-17 -41 -59 -89q-3 -4 -5 -7
q-4 -4 -8 -7q-6 -7 -11 -12l-8 -8l-3 -3l-2 -2l-1 -1q-7 -10 -17 -28l-13 -31l-16 -26l-11 -12l-5 -10l-1 -1l-1 -2q-1 -2 -3 -3q-1 -1 -2 -1h-1l-1 1q-2 -2 -3 -2h-1q-1 1 -1 2q-1 -1 -3 -1h-1q-2 2 -2 5v3l3 11l9 21q7 13 7 18v1q-2 6 -2 9q0 16 27 20l1 2v4q0 16 7 31
q3 9 9 22q13 28 28 34q2 11 6 18q1 3 13 20q9 11 12 20q1 2 1 7v6l1 6q0 11 3 18v1q0 12 20 29l3 4l3 4q-7 1 -12 22l-3 18t-3 16q-9 1 -17 13v-4q0 -20 -10 -20q-11 0 -25 18q0 -14 -8 -22q-6 -7 -15 -7q-22 1 -22 31q-16 -21 -24 -21q-2 0 -4 2q-3 5 -6 40
q-16 -21 -26 -21q-3 0 -5 2q-6 5 -6 20q0 3 2 17q-7 -7 -17 -7q-8 0 -16 6q-5 7 -5 12v2q2 8 14 14q-30 0 -38 8q4 5 16 7q13 1 17 4q3 1 8 6q-6 -2 -8 -2q-3 0 -5 2q-5 3 -5 13v3q-13 -19 -19 -19q-2 0 -2 3l2 14l1 6l1 6q2 6 2 8q-25 -26 -25 -28l-1 2v2q0 11 6 27
q-19 -19 -28 -19q-5 0 -5 9q0 3 2 17q-14 -27 -25 -31v5q0 8 6 20q5 8 8 16l2 6l1 2v1q-5 -4 -16 -18q-9 -12 -16 -15v-1q1 0 3 11q2 12 4 31q-9 -9 -18 -9h-2q-9 1 -10 13q0 8 8 19q9 11 9 18q-21 -12 -25 -13q-3 -1 -9 -1q-7 0 -10 6q-1 2 -1 7q0 8 9 18q11 13 22 14
q-16 -2 -20 -2q-17 0 -19 11v2q0 9 12 15l2 1l2 1l7 3l5 2l4 2q-24 11 -24 17q0 1 1 2t35 12q-1 2 -8 7q-7 7 -9 8q-6 8 -6 13q0 4 1 6q1 1 5 1q6 0 18 -5t18 -5h3l-15 22q-4 7 -4 11q0 6 7 6h1q10 0 20 -13q14 -16 18 -18q-18 82 -23 82l-1 -1q24 -13 49 -73q-11 32 -12 68
l-1 6v5q0 23 8 23h2l3 -1h-1v-1q0 -7 21 -58l1 -3l1 -3q1 -4 3 -7q3 -11 8 -22q10 -20 13 -36q-16 68 -16 115q0 52 21 65q10 -7 10 -31v-8q0 -6 -1 -11t-1 -10v-6q2 -16 6 -41q3 -13 5 -25l1 -9l1 -6q0 109 30 157q9 -4 9 -29q0 -14 -3 -35q-9 -67 -9 -74v-1q0 1 1 4
q1 2 2 6q2 9 5 21q3 14 7 29q3 10 7 22q19 61 37 61q2 0 3 -1q-2 -25 -20 -66q-19 -43 -22 -68q14 41 38 74q31 43 68 51q-1 -21 -60 -72q-35 -56 -35 -111v-13l1 -7q1 -12 8 -27q13 71 80 150q32 39 64 65h11q-42 -23 -78 -85q52 38 125 40l-3 -11q-121 -3 -147 -90
q-7 -21 -7 -49q0 -38 15 -88l4 -2l2 -2q13 -13 31 -58q0 7 8 15q8 6 16 6h2v-1l17 14q-11 -9 -14 -14h3l2 -1h1q7 4 7 9v-1q0 -2 -2 -6l6 4l-8 -6l1 -1l8 4l-7 -5h1q5 1 9 7q-1 -4 -7 -8l17 2q2 -2 2 -3v-1l-2 -2h6q1 0 1 -1q0 -2 -1 -3q3 0 3 -3v-3q7 0 8 -4v-2q0 -2 -3 -5
q-6 -6 -6 -10v-1q1 -3 4 -8l2 -5l2 -4q6 -6 8 -9l1 1v-1q1 1 3 1q9 0 16 -10q10 -10 13 -28q1 -4 1 -12q0 -14 -6 -23q2 -16 2 -21v-2zM89 306l52 105l-121 100l366 230v-89l-86 -54l110 -91zM225 551l-5 -3l71 -59l11 23l-60 50zM161 511l-22 -14l71 -59l12 23z" />
    <glyph glyph-name=".null" horiz-adv-x="1231" 
 />
    <glyph glyph-name=".null" horiz-adv-x="1231" 
 />
    <glyph glyph-name="nonmarkingreturn" horiz-adv-x="508" 
 />
    <glyph glyph-name="space" unicode=" " horiz-adv-x="444" 
 />
    <glyph glyph-name="space" unicode="&#xa0;" horiz-adv-x="444" 
 />
    <glyph glyph-name="exclam" unicode="!" horiz-adv-x="516" 
d="M180 259q88 -13 125 -42q62 -56 62 -97v-29q-4 -54 -44 -103q-61 -58 -117 -58h-48q-71 0 -99 74q-8 55 -8 65q0 116 59 154q35 36 70 36zM250 459q111 -3 131 394q6 129 3 362.5t-11 297.5q-25 196 -149 185q-86 -7 -119 -108q-12 -37 -17 -89q-4 -35 -4 -84l-10 -333
q0 -11 -1 -30v-17l-1 -19q-1 -49 -2 -87q0 -118 11 -204q-7 -257 169 -268q8 0 3 0l-13 1q-9 1 -8 1q1 -1 18 -2z" />
    <glyph glyph-name="quotedbl" unicode="&#x22;" horiz-adv-x="608" 
 />
    <glyph glyph-name="numbersign" unicode="#" horiz-adv-x="1518" 
 />
    <glyph glyph-name="dollar" unicode="$" horiz-adv-x="1208" 
 />
    <glyph glyph-name="percent" unicode="%" horiz-adv-x="1431" 
 />
    <glyph glyph-name="ampersand" unicode="&#x26;" horiz-adv-x="1357" 
 />
    <glyph glyph-name="quotesingle" unicode="'" horiz-adv-x="309" 
 />
    <glyph glyph-name="parenleft" unicode="(" horiz-adv-x="651" 
 />
    <glyph glyph-name="parenright" unicode=")" horiz-adv-x="920" 
 />
    <glyph glyph-name="asterisk" unicode="*" horiz-adv-x="785" 
 />
    <glyph glyph-name="plus" unicode="+" horiz-adv-x="1003" 
 />
    <glyph glyph-name="comma" unicode="," horiz-adv-x="557" 
 />
    <glyph glyph-name="hyphen" unicode="-" horiz-adv-x="893" 
 />
    <glyph glyph-name="hyphen" unicode="&#xad;" horiz-adv-x="893" 
 />
    <glyph glyph-name="period" unicode="." horiz-adv-x="471" 
d="M247 365q35 0 74 -47q74 -47 74 -93q9 0 12 -35v-70q0 -57 -70 -105q-25 -8 -35 -8h-66q-31 0 -109 54q-52 67 -55 121l4 8l-4 7q0 81 70 125q21 0 86 43h19z" />
    <glyph glyph-name="slash" unicode="/" horiz-adv-x="1047" 
 />
    <glyph glyph-name="zero" unicode="0" horiz-adv-x="1306" 
d="M957 620q-11 -116 -36 -207q-67 -251 -216 -270q-83 -11 -160 70q-28 30 -109.5 163.5t-67.5 347.5q2 31 6 69q6 47 14 92q21 120 54 206q95 245 260 150q114 -65 189 -195q74 -129 74 -259q0 -82 -8 -167zM958 1364q-75 43 -206 65l-291 52q-121 22 -223 -134
q-38 -57 -72 -136q-13 -30 -26 -64q-9 -24 -19 -54q-91 -261 -45 -576q20 -140 107 -270q85 -127 212 -211q131 -86 272 -102q153 -18 289 52q143 74 222 233q71 142 83 334q10 177 -31 356q-41 175 -113 290t-159 165z" />
    <glyph glyph-name="one" unicode="1" horiz-adv-x="1007" 
d="M850 254q-13 2 -35 4l-16 1l-15 2q-32 4 -52 23q-25 24 -43 79q-19 58 -25 142q-2 26 -3 72l-1 36l-2 36q-7 131 -21 312l-5 51l-5 51q-6 63 -6 103q-12 154 -36 197q-38 69 -163 87q-38 6 -89 2q-59 -5 -108 -20q-129 -41 -120 -137q4 -53 41 -70q25 -13 81 -12l22 1h23
q25 0 42 -3q46 -8 62 -43q25 -54 32 -138q2 -30 3 -73l1 -35v-34q1 -69 -2 -167l-3 -83l-3 -84v-28l-1 -30q-1 -37 -3 -62q-7 -73 -35 -113t-79 -54q-16 -4 -49 -10l-27 -4q-15 -3 -28 -6q-43 -10 -67 -19q-35 -13 -53 -29q-46 -40 5 -112q48 -67 220 -82q57 -5 136 -5h30
h28q32 1 47 0q49 -1 101 2q71 3 129 13q159 27 191 96q39 81 -18 114q-38 22 -81 29z" />
    <glyph glyph-name="two" unicode="2" horiz-adv-x="1314" 
d="M1003 351l36 16q45 17 75 24q89 17 134 -45q54 -75 6 -179q-43 -91 -125 -141q-128 -78 -374 -64q-94 6 -205 25q-85 15 -177 38l-23 5l-13 3l-13 3q-37 8 -62 15q-81 20 -131 45q-149 73 -82 196q24 44 83 46l24 1h26q30 1 49 8q47 17 98 66l21 22l21 22l41 42
q118 113 179 194q91 118 122 232q30 108 -10 226q-47 139 -166 118q-56 -9 -95 -75q-14 -24 -30 -63l-14 -34l-13 -33q-33 -80 -66 -106q-47 -37 -120 -5q-120 54 -88 186q29 120 161 238q137 122 292 157q177 40 302 -59q136 -107 127 -311q-8 -176 -110 -335
q-25 -39 -64 -93l-34 -46l-33 -46q-79 -110 -115 -194q-74 -169 59 -178q52 -3 132 18q64 17 141 48q12 4 34 13z" />
    <glyph glyph-name="three" unicode="3" horiz-adv-x="1049" 
d="M783 820q-21 38 24 124q11 21 34 53l21 26l19 27q47 67 48 117q10 142 -124 235q-52 36 -146 55q-95 18 -191 11q-106 -9 -176 -46q-79 -44 -97 -118q-23 -98 26 -118q35 -14 128 12l40 12l39 12q47 13 77 18q82 14 107 -26q42 -68 -39 -171q-34 -43 -76 -71
q-44 -29 -79 -29q-43 -15 -71 -52q-26 -35 -30 -79t16 -80q22 -39 68 -56l33 -12l18 -6l18 -7q45 -16 78 -29q93 -39 145 -81q144 -116 -4 -277q-69 -74 -147 -58q-50 11 -140 77l-36 26l-35 25q-41 27 -73 39q-83 32 -156 -18q-67 -46 -80 -134q-12 -86 37 -151
q76 -101 294 -124q184 -19 333 20q111 29 194 123q78 88 110 207q32 121 6 234q-27 121 -118 202t-95 88z" />
    <glyph glyph-name="four" unicode="4" horiz-adv-x="1234" 
d="M1053 901q-13 45 -7 136l3 37l2 36v170q-3 80 -13 137q-29 172 -124 172q-128 12 -137 -145q-3 -50 6 -132l4 -30l2 -15l9 -169q1 -67 -5 -114q-19 -130 -106 -181q-103 -62 -232 -10q-125 50 -166 161q-15 40 -12 104q1 23 4 57l3 29l3 29q14 142 -47 196
q-124 109 -177 -48q-19 -55 -27 -138q-3 -31 -4 -64l-2 -154q0 -78 4 -136q11 -169 54 -219q42 -49 169 -64q49 -6 231 -9.5t250 -17.5q103 -22 109 -82l3 -26l1 -14l2 -15q4 -40 8 -70q13 -89 32 -151q55 -179 174 -159q115 35 97 165q-5 38 -28 111l-8 28l-8 26
q-8 29 -10 49q-11 71 -4 84q2 5 16 21q8 8 59 68l13 11l13 10q25 25 14.5 82t-82.5 95t-86 149z" />
    <glyph glyph-name="five" unicode="5" horiz-adv-x="1243" 
d="M790 847l32 -7q36 -9 61 -16q64 -18 100 -35q139 -66 191 -223q46 -137 18 -304q-28 -165 -223 -228q-76 -24 -174 -31q-78 -6 -163 0q-175 10 -331 81q-190 86 -248 223q-21 50 -11 100q10 48 44 85q33 36 80 51q50 15 100 1q57 -17 130 -78l29 -25l29 -25
q34 -29 60 -45q100 -63 193 -49q83 12 126 76q42 63 17 132q-29 78 -133 121q-54 22 -139 30q-32 3 -77 4l-39 1l-39 2q-201 6 -278 60q-93 65 -89 299q4 197 55 329q57 146 292 165q77 6 198 0l48 -2l45 -3q51 -2 81 -2q58 0 126 -14q80 -17 132 -46q138 -76 10 -201
q-75 -73 -254 -61l-37 3l-36 3q-45 4 -71 5q-81 4 -132 -11q-79 -23 -113 -78q-39 -61 9 -126q39 -52 143 -93q68 -26 205 -60z" />
    <glyph glyph-name="six" unicode="6" horiz-adv-x="1260" 
d="M673 593q87 21 165 -31q71 -48 40 -165q-28 -102 -92 -159q-81 -34 -166 -10q-130 36 -127 150q1 48 28 96t72 80q30 3 56 22q12 9 24 17zM943 837q-170 59 -351 -34q-16 -4 -58 -27l-17 -9l-18 -9q-21 -11 -37 -18q-91 -39 -122 13q-21 34 4 99q9 24 24 51q12 21 26 40
q71 101 137 162q88 81 181 105q19 4 50 9l28 4l31 5q82 11 128 24q151 44 146 160q-5 148 -210 143q-74 -2 -163 -25q-75 -19 -125 -43q-162 -76 -297 -220q-128 -137 -206 -307q-106 -229 -36 -499q68 -267 269 -423q103 -81 227 -112q120 -29 238 -6q120 23 216 95
q102 76 162 195q54 107 54 220q1 106 -46 199q-77 154 -235 208z" />
    <glyph glyph-name="seven" unicode="7" horiz-adv-x="1099" 
d="M945 1529q-1 -3 13 -8q14 -6 21 -6q8 -1 -5 9q-58 46 -224 40q-29 -1 -67 -3l-32 -3l-32 -2q-75 -6 -105 -5q-34 2 -92 12l-49 9l-50 8q-121 18 -184 -12q-80 -38 -97 -128q-16 -92 50 -150q57 -50 146 -44q56 3 166 38l42 13l42 12q46 13 79 17q86 10 138 -34
q92 -77 40 -309q-19 -86 -63 -217l-40 -113l-20 -57l-20 -56q-93 -272 -83 -384q16 -158 221 -132q26 79 55 185l25 93l12 48l13 48q12 46 35 123l18 63l18 62q42 148 56 251q4 25 13 67q3 16 8 40l9 41q25 114 34 182q29 226 -62 297q-27 7 -29 5z" />
    <glyph glyph-name="eight" unicode="8" horiz-adv-x="1141" 
d="M675 279q-90 -18 -125 4q-2 1 -7 4q-46 10 -76 48q-16 16 -23 40q-36 92 15.5 187t148.5 106q88 9 172 -10q58 10 92 -46l3 -1l2 -3q24 -175 -44 -243t-158 -86zM473 1298l4 2l3 2q93 56 184 -14q41 -24 55 -58q3 -4 5 -11l3 -11q50 -101 -15 -179t-140 -68
q-67 8 -121 60q-39 31 -52 76q-33 142 74 201zM1015 1048q24 114 -36 243q-57 124 -166 210q-114 90 -238 98q-146 10 -276 -82q-122 -86 -183 -224q-63 -141 -31 -269q36 -142 181 -217q0 -15 -74 -87l-28 -27l-13 -12l-13 -12q-27 -26 -32 -32q-76 -94 -76 -243
q0 -170 172 -272q149 -89 325 -81q121 5 282 91q161 87 230 185q41 58 54 148t-7 175q-21 92 -74 147q-60 61 -150 61q127 72 153 200z" />
    <glyph glyph-name="nine" unicode="9" horiz-adv-x="1260" 
d="M581 872q-86 -21 -164 31q-72 48 -40 165q27 101 91 159q82 34 166 10q130 -36 127 -150q-1 -48 -28 -96t-71 -81q-31 -2 -56 -21q-12 -9 -25 -17zM311 628q170 -59 351 34q17 4 58 26l17 10l18 9q21 11 37 18q91 39 123 -13q20 -35 -5 -99q-9 -25 -24 -51
q-12 -21 -25 -40q-71 -101 -137 -162q-89 -81 -182 -105q-18 -5 -49 -9l-29 -5l-31 -4q-82 -11 -128 -25q-150 -43 -146 -159q6 -148 210 -143q75 2 164 25q74 19 124 43q162 76 297 220q128 137 207 307q105 229 36 499q-69 267 -269 423q-104 81 -227 111q-120 30 -239 7
t-216 -95q-101 -76 -161 -195q-55 -108 -55 -221q0 -105 46 -198q77 -154 235 -208z" />
    <glyph glyph-name="colon" unicode=":" horiz-adv-x="492" 
 />
    <glyph glyph-name="semicolon" unicode=";" horiz-adv-x="553" 
 />
    <glyph glyph-name="semicolon" unicode="&#x37e;" horiz-adv-x="553" 
 />
    <glyph glyph-name="less" unicode="&#x3c;" horiz-adv-x="893" 
 />
    <glyph glyph-name="equal" unicode="=" horiz-adv-x="909" 
 />
    <glyph glyph-name="greater" unicode="&#x3e;" horiz-adv-x="893" 
 />
    <glyph glyph-name="question" unicode="?" horiz-adv-x="1171" 
 />
    <glyph glyph-name="at" unicode="@" horiz-adv-x="1751" 
 />
    <glyph glyph-name="A" unicode="A" horiz-adv-x="1626" 
d="M1118 796v-1q-4 -5 -4 -7q-1 -1 4 7l-3 -4l-1 -3q-38 -64 -211 -74q-63 -4 -141 0q-58 3 -117 10q-146 15 -158 132q-5 46 11 112q11 46 37 117l11 31q24 64 57 126q43 80 89 129q124 134 238 13.5t179 -281.5q79 -193 10 -307h-1zM1122 802q1 1 -4 -6q3 4 4 6zM1531 160
l-13 61q-39 184 -46 305l-7 112q-5 64 -10 112q-16 125 -49 219q-40 109 -84 204q-58 125 -122 220q-167 250 -358 271q-189 22 -329 -174q-54 -74 -102 -182q-32 -73 -70 -181q-43 -124 -93 -321l-42 -162q-24 -96 -43 -162q-33 -118 -68 -210q-8 -20 -23 -51l-13 -24
l-11 -25q-25 -57 -15 -106q22 -100 135 -113q85 -9 124 34q45 50 98 158l21 42l21 42q25 46 49 79q144 195 360 214l36 3l38 3q43 3 77 3q90 1 149 -19q76 -25 91 -120q5 -37 3 -93l-3 -50l-4 -52q-8 -128 14 -187q33 -88 143 -102q94 -13 138 44q41 54 22 146z" />
    <glyph glyph-name="B" unicode="B" horiz-adv-x="1372" 
d="M934 274q-52 -51 -151 -79q-86 -23 -171 -21q-196 5 -242 199q-6 25 -9 43q-6 26 -9 49q-8 56 -5 100q9 115 101 143q67 21 168 12q90 -9 165 -36q98 -36 162 -126q69 -97 47 -190q-13 -52 -56 -94zM429 1370q60 33 153 31q86 -2 165 -32q82 -32 117 -78q61 -82 12 -179
q-48 -97 -148 -104q-127 -8 -250 57q-142 76 -127 193q9 75 78 112zM1067 897q78 74 121 179q92 230 -64 399q-140 152 -387 176l-44 5l-45 5q-54 5 -91 7q-104 7 -177 -4q-192 -29 -272 -195q-57 -117 -59 -601q-2 -410 28 -700q7 -69 22 -102q21 -44 71 -63
q345 -130 673 -57q176 40 294 139q131 111 177 287q47 185 -41 335q-71 121 -206 190z" />
    <glyph glyph-name="C" unicode="C" horiz-adv-x="1502" 
d="M1181 1437q-47 -16 -141 -6q-33 4 -85 12l-43 7l-42 7q-100 17 -150 13q-185 -15 -299 -137q-106 -114 -125 -294q-19 -186 56 -376q78 -198 165 -289q127 -106 311 -117q67 -4 169 3l43 4l45 3q55 4 91 6q60 4 120 -3q71 -7 115 -27q124 -56 3 -177q-107 -106 -337 -95
q-88 4 -191 25q-79 16 -162 41q-352 96 -552 391q-209 308 -111 700q69 277 322 460q250 181 538 169q80 -3 159 -33q164 -59 164 -196q0 -69 -63 -91z" />
    <glyph glyph-name="D" unicode="D" horiz-adv-x="1404" 
d="M1057 577q-38 -110 -135 -178q-76 -53 -212 -94q-12 -3 -37 -12l-11 -4l-11 -3l-25 -9q-64 -21 -110 -31q-141 -31 -185 22q-25 31 -34 122q-3 30 -4 73l-1 16v15q-1 17 -1 26q-6 100 10 274l6 68l6 68q6 78 6 137q0 163 59 211q62 50 212 -3q271 -95 398 -249
q155 -187 74 -437zM1258 1143q-193 312 -645 443q-272 79 -435 54q-90 -13 -91 -93q0 -23 9 -72l6 -37q2 -20 2 -35v-215l-1 -216q-3 -243 -15 -431q-16 -257 1 -413q15 -134 193 -138q63 -1 152 14q29 5 71 13l16 3l16 3q17 4 29 6q191 35 334 108q252 130 341 291
q78 143 92 315q14 174 -43 324q-15 38 -32 76z" />
    <glyph glyph-name="E" unicode="E" horiz-adv-x="1337" 
d="M577 688q218 63 489 82q113 25 117 105l1 18q-16 83 -148 97q-61 5 -138 -15q-27 -8 -67 -21l-33 -12l-33 -11q-148 -50 -279 -21q-94 21 -98 142q-3 113 61 178q41 43 113 56q25 4 63 7l33 1l32 2q171 10 268 48q76 30 127 80q58 59 44 134q-14 74 -86 115
q-46 25 -119 33q-26 2 -63 3l-31 1h-29q-65 2 -258 -12q-201 -15 -306 -75q-162 -93 -154 -281l4 -195q2 -211 -18 -268q-21 -57 -108 -57q-87 -1 -91 -107q-3 -106 210 -66q43 -4 41 -134q-1 -41 -15 -120l-6 -32l-6 -32q-6 -37 -9 -65q-15 -155 66 -227q37 -32 105 -38
q22 -1 59 -1l29 1l29 -1q418 18 474 24l329 44q82 11 111 104q-1 119 -214 123q-103 0 -250 -18q-148 -20 -254 -16q-123 4 -178 99q-44 77 -40 171q4 93 226 157z" />
    <glyph glyph-name="F" unicode="F" horiz-adv-x="1315" 
d="M913 1680q-86 -2 -158 -7q-181 -14 -311 -55q-342 -108 -388 -419q-16 -117 7 -281l11 -70l12 -69q14 -86 20 -138q34 -298 34 -444q0 -84 23 -132q32 -65 107 -65q79 0 104 70q10 27 13 67l2 34v33q0 23 -3 61l-3 34l-4 35q-8 94 -5 149q9 176 135 207q37 9 124 7l37 -1
l38 -1q46 -1 78 0q191 6 227 107q30 82 -40 117q-52 26 -138 21l-73 -4l-73 -3q-87 -5 -145 -11l-23 -3l-24 -4q-30 -5 -49 -5q-56 -2 -88 29q-46 45 -60 119q-14 71 10 133q38 104 178 159q53 21 123 36q49 10 118 19q83 11 194 13h98l98 -1q50 0 83 41q31 39 31 89
q0 71 -53 105q-45 30 -120 30q-90 0 -147 -2z" />
    <glyph glyph-name="G" unicode="G" horiz-adv-x="1575" 
d="M1048 948q286 7 412 -131q134 -146 75 -443q-78 -337 -367 -478q-127 -61 -278 -62q-145 -1 -290 55q-309 118 -469 341q-177 315 -69 688q56 192 169 354q118 171 274 272q169 109 356 117q44 2 99 -8q66 -12 113 -34q130 -58 111 -163q-16 -93 -193 -107q-22 -3 -72 -5
h-70q-87 -1 -113 -7q-164 -32 -299 -178q-131 -141 -183 -323q-56 -191 -5 -350q57 -177 236 -261q82 -39 203 -42q126 -5 235 28q123 36 195 107q83 82 83 195q2 118 -87 162q-36 19 -91 29q-25 5 -52 8l-52 8q-18 3 -75 5l-23 1l-24 1q-25 1 -50 3q-126 12 -152 56
q-49 80 22 124q25 18 69 26q36 8 73 8h144z" />
    <glyph glyph-name="H" unicode="H" horiz-adv-x="1400" 
d="M1262 718q0 68 2 159l4 160q1 20 7.5 87.5t8.5 91.5q14 153 11 258q-10 333 -183 329q-110 -2 -122 -157q-4 -58 3 -159l3 -45l4 -45q5 -58 7 -93q15 -231 -32 -342q-66 -158 -269 -163q-130 -5 -165 -2q-97 8 -145 61q-60 66 -74 172q-10 72 1 221.5t10 193.5
q-3 115 -42 190q-45 86 -125 64q-77 -21 -101 -109q-13 -48 0 -117l6 -29l6 -29q8 -35 25.5 -175t16.5 -215q-5 -219 -131 -275q-25 -11 -60 -9q-114 -21 -114 -108q0 -32 12 -61q21 -54 70 -65q37 -9 101 7q49 28 81 18q51 -16 54 -97q1 -30 -4 -79l-6 -43l-5 -44
q-11 -108 7 -157q26 -70 118 -70q32 0 40 6l16 11l14 10q17 10 25 18q23 21 28 61q5 29 2 76l-2 41l-3 41q-6 104 19 153q29 58 156 92q46 13 346 48q103 1 142 -46q10 -13 15 -67l6 -112q5 -150 20 -150q0 -194 120 -194q32 0 40 7q11 9 28 20l12 8l12 8q23 19 31 57
q8 40 0 93q-3 20 -10 47l-10 46q-9 38 -13 83q-14 139 -14 319z" />
    <glyph glyph-name="I" unicode="I" horiz-adv-x="867" 
d="M669 236q-93 56 -119 206q-9 56 -10 130q-1 28 0 61l1 29l1 27l6 137l7 136q7 163 7 272v26l-1 24q0 27 2 43q7 45 46 76q18 14 57 27l34 11q21 6 34 11q81 31 84 94q3 84 -113 89h-22l-255 -11l-190 6q-19 1 -31 1q-18 0 -33 -1q-39 -2 -67 -10q-74 -22 -77 -93
q-2 -56 54 -86q17 -9 53 -23l27 -10l25 -11q119 -61 134 -200q11 -96 10 -238l-2 -119v-119q0 -35 5 -95l4 -49l3 -49q6 -118 -19 -190q-16 -46 -55 -70l-17 -10l-19 -10q-23 -14 -39 -28q-76 -64 -45 -118q28 -50 122 -64q219 -35 388 -1q92 18 113 57q18 36 -24 82
q-28 30 -79 60z" />
    <glyph glyph-name="J" unicode="J" horiz-adv-x="1253" 
d="M1034 1647q-62 0 -152 -11l-34 -4l-17 -3l-15 -2l-53 -6l-26 -2l-27 -2q-31 -3 -55 -7q-65 -8 -113 -22q-127 -37 -178 -123q-43 -71 11 -145q44 -59 125 -93l33 -14l34 -13q39 -16 63 -30q66 -40 83 -109q43 -184 32 -497q-4 -102 -53 -206q-59 -123 -144 -148
q-71 -20 -129 39q-10 10 -24 27l-24 28q-30 36 -55 54q-69 51 -167 27q-100 -25 -123 -109q-30 -106 93 -224q108 -105 221 -131q131 -31 269 26q126 52 222 160q98 112 135 292q25 126 23 324l-2 63l-2 64q-3 78 -1 126q5 144 58 244q16 30 51 65q13 13 33 31l33 30
q82 75 91 132q7 39 -1 69q-27 99 -215 100z" />
    <glyph glyph-name="K" unicode="K" horiz-adv-x="1360" 
d="M1040 522l-67 47l-65 46q-71 53 -112 93q-105 104 -83 202q27 118 237 255l48 34l60 46q75 61 122 118q131 161 14 254q-80 64 -204 1q-45 -24 -98 -65q-20 -15 -43 -35l-19 -17l-9 -8l-8 -7q-8 -7 -59 -57l-42 -40l-46 -43q-119 -105 -157 -94q-51 16 -55 123
q-1 16 -1 43v22l-1 20q-1 46 -10 66q-13 31 -33 52q-186 202 -285 -208q-34 -136 -54 -330q-7 -68 -12 -139l-4 -52l-2 -37l-1 -20l-1 -22q-2 -30 -3 -49q-3 -62 -4 -112q-4 -144 8 -252q31 -309 183 -367q126 -49 187 146q48 151 57 444l46 -44q19 -20 62 -70l19 -24
l21 -25l45 -53q122 -144 213 -225q289 -258 421 -41q67 110 -18 214q-72 87 -247 210z" />
    <glyph glyph-name="L" unicode="L" horiz-adv-x="1189" 
d="M1037 224q-77 -11 -118 -15q-67 -7 -120 -7q-133 1 -230 50q-208 105 -247 388q-16 109 -6 249q6 98 27 236l16 92l16 93q20 118 30 185q13 86 -39 121q-49 33 -133 11q-50 -28 -70 -129q-6 -31 -12 -84l-2 -19l-3 -19q-2 -21 -4 -34q-123 -683 -94 -1053
q11 -138 44 -212q47 -106 153 -142q138 -46 316 -31q126 10 313 59l18 5l10 2l10 2l47 12q61 17 102 35q120 54 101 137q-14 57 -96 66q-31 3 -69 -1q-31 -4 -59 -11l93 14h6z" />
    <glyph glyph-name="M" unicode="M" horiz-adv-x="2509" 
d="M2299 684l-44 150l-43 150l-20 73l-21 73q-25 87 -46 147q-58 166 -138 271q-19 25 -43 48q-28 28 -57 45q-73 45 -128 13q-90 -53 -163 -187q-26 -48 -55 -118l-24 -58l-12 -28l-11 -27q-6 -13 -22 -54l-13 -35l-15 -37q-40 -98 -78 -163q-113 -198 -231 -162
q-83 26 -122 157q-12 42 -24 111l-5 26l-4 26q-5 28 -9 45q-14 65 -31 114q-21 65 -49 112q-70 121 -182 140q-138 23 -238 -147l-124 -214q-69 -121 -119 -221q-127 -252 -184 -462q-19 -69 -12 -129q7 -79 57 -112q83 -55 152 35q25 32 48 82l17 42q6 16 12 35l25 74
l25 74q29 84 57 144q74 157 181 248q113 96 183 -109q12 -37 25 -86l19 -86q23 -109 29 -127q44 -130 119 -181q88 -62 191 16q86 65 166 176q54 76 126 208q8 14 29 57l9 18l10 19l21 41q56 106 103 168q144 188 245 20q49 -80 84 -221l14 -59l13 -59q16 -73 27 -114
l141 -506l6 -19l5 -20q7 -25 13 -43q16 -53 34 -89q51 -99 134 -99q149 0 125 199q-8 67 -37 159q-9 30 -22 69l-5 15l-5 14q-5 15 -8 23l-11 37q-40 123 -90 298z" />
    <glyph glyph-name="N" unicode="N" horiz-adv-x="1580" 
d="M1071 1421q-2 -65 16 -163q6 -30 16 -76l4 -18l3 -16q4 -18 6 -29q74 -379 54 -646q-61 52 -127 134l-56 77l-56 79q-146 210 -247 291l-36 30l-16 15l-16 15q-40 36 -63 53q-72 53 -161 61q-154 11 -236 -62q-77 -69 -98 -220q-2 -14 -4 -32q-3 -22 -5 -47
q-7 -63 -11 -128q-13 -181 -5 -322q22 -420 211 -359q80 25 108 146q22 89 19 260l-1 72l-2 71q-3 85 -2 134q2 144 34 196q80 -9 232 -203l67 -88l34 -47l35 -47q90 -124 142 -188q169 -210 280 -247q145 -48 236 168q35 84 62 286q30 222 26 431q-4 250 -59 398
q-65 176 -195 185q-182 27 -189 -164z" />
    <glyph glyph-name="O" unicode="O" horiz-adv-x="1455" 
d="M1078 432q-57 -86 -150 -138q-94 -53 -200 -58q-113 -5 -216 45q-161 77 -184 291q-18 168 49 362l12 35l12 36q14 43 27 73q34 83 79 127q83 81 136 101q48 19 165 19q190 0 278 -265q33 -100 49 -228q12 -103 10 -200q-7 -109 -67 -200zM868 1576q-23 3 -54 6l-53 4
q-238 18 -392 -34q-102 -35 -152 -99q-36 -14 -43 -105q-2 -29 -1 -69v-15l1 -14v-20q-8 -66 -46 -187l-15 -48l-15 -49q-16 -55 -25 -97q-41 -207 -13 -373q36 -205 176 -317q257 -206 636 -145q118 19 229 81q49 28 110 94l25 28l25 28q29 33 48 52q82 81 108 229
q19 107 8 255q-21 273 -163 518q-55 94 -155 170q-38 28 -78 51q-32 18 -59 30q-42 18 -102 26z" />
    <glyph glyph-name="P" unicode="P" horiz-adv-x="1212" 
d="M759 883q-124 -43 -238 -10q-115 14 -144 88q-18 46 -6 169q6 61 46 130q46 81 99 81q138 -1 257 -64q145 -76 147 -202q0 -18 -3 -34q-18 -111 -158 -158zM789 1656q-111 25 -236 1q-122 -24 -226 -85q-107 -63 -167 -149q-111 -158 -111 -488q0 -120 14 -276
q5 -55 13 -128l4 -31l3 -29l6 -55l1 -11l2 -13q2 -15 3 -29q5 -38 11 -72q15 -96 38 -166q65 -205 180 -170q101 32 123 125q18 75 -14 200q-12 46 -32 110l-19 54l-8 26l-9 26q-40 123 -40 175q204 -68 353 -63q197 7 320 136q176 143 164 399q-11 242 -174 407
q-26 27 -22 23l22 -23q19 -18 22 -22q5 -5 -22 22q-79 80 -199 106z" />
    <glyph glyph-name="Q" unicode="Q" horiz-adv-x="1544" 
d="M1228 516q-30 -62 -81 -127q-58 -74 -109 -102q-46 -25 -75 1q-21 20 -40 78l-8 25l-8 26q-10 31 -17 50q-23 54 -54 70q-71 37 -100 0q-22 -26 -26 -104l-1 -32l-1 -32q-1 -39 -3 -60q-8 -60 -40 -60q-111 0 -246 117q-140 120 -140 233q-17 94 17 221q35 125 106 232
q76 115 170 169q104 60 209 30q206 -60 360 -266q75 -101 104 -206q32 -114 2 -215q-8 -24 -19 -48zM1001 1568q-139 18 -260 -13q-283 -72 -455 -276q-171 -202 -227 -445q-64 -279 65 -481q121 -192 316 -275q39 -16 95 -29l48 -10l48 -11q114 -26 172 -82q26 -25 78 -111
l22 -35l22 -37q27 -42 49 -72q127 -169 248 -94q63 39 51 112q-5 28 -22 64q-11 24 -32 61q-2 3 -8 14l-16 26l-44 72q-62 101 -68 101q76 0 181 106q39 39 79 90q29 37 58 78q49 71 68 161q8 36 13 84l4 43l4 45q14 186 -32 408q-54 258 -160 372q-21 23 -48 43
q-98 71 -249 91z" />
    <glyph glyph-name="R" unicode="R" horiz-adv-x="1220" 
d="M330 896q-83 66 1 238q73 148 167 216q81 60 178 24t120 -134q-1 -64 -46 -147t-114 -146q-74 -68 -149 -86q-85 -19 -154 33zM847 768q12 11 30 24l32 22q40 29 61 48q101 96 151 232q56 152 15 273q-54 159 -258 228q-179 60 -357 24q-184 -37 -314 -178
q-134 -145 -143 -330q-23 -416 -23 -445v-205l6 -342q-15 -140 116 -155h5q71 -8 109 32q22 -5 36 241q15 246 59 299q44 52 135 17q305 -516 336 -521q71 -78 120 -82q182 25 152 168q6 53 -73 150q-24 29 -65 73l-15 16l-13 15q-15 15 -22 25q-11 12 -28 33l-13 16l-13 15
q-29 35 -45 58q-42 62 -44 120q-4 73 63 129z" />
    <glyph glyph-name="S" unicode="S" horiz-adv-x="1285" 
d="M756 1783q139 0 200 -11q100 -17 186 -76q52 -36 71 -101q16 -57 4 -123q-6 -35 -21 -66q-20 -43 -47 -55q-38 -17 -94 42l-20 22l-20 23q-22 23 -35 30q-38 21 -90 28q-36 5 -98 5q-160 0 -228 -10q-115 -16 -215 -71q-168 -92 -195 -179q-31 -100 148 -178
q309 -133 630 -380q106 -82 157 -204q54 -129 26 -257q0 -208 -301 -256q-351 -45 -479.5 -32t-169.5 19q-129 17 -139 128q-5 48 27 98q34 55 80 58q34 2 95 -22l24 -10l23 -9q25 -9 42 -12q72 -13 135 -19q80 -8 148 -5q172 8 261 82q60 50 44 132q-15 80 -86 118
q-53 28 -176 86l-49 23l-50 24q-57 27 -101 50q-244 125 -335 244q-101 130 -108 229q-8 109 85 243q116 165 290 273q192 119 381 119z" />
    <glyph glyph-name="T" unicode="T" horiz-adv-x="1533" 
d="M289.5 1582q-119.5 22 -139.5 21q-55 -2 -86 -41q-27 -34 -33 -77q-6 -45 13 -82q39 -77 169 -82q24 -1 55 0l27 1l26 1q66 3 95 0q138 -17 183 -111q26 -57 11 -326t6.5 -556t28.5 -310q19 -61 87 -76q73 -17 119 38q41 49 41 124q0 89 15 234.5t-32 788.5
q-3 111 41 146q89 68 199.5 65t140.5 -2q81 3 136 26q72 29 77 111t-62 122q-39 23 -111 24q-23 1 -61 -1l-29 -1q-16 -1 -27 -1q-50 0 -125 -8q-645 -50 -764.5 -28z" />
    <glyph glyph-name="U" unicode="U" horiz-adv-x="1526" 
d="M202 1563q172 -37 153 -244q-1 -717 107 -876t158 -201q78 -64 202 -59q149 6 224.5 119t100.5 296q29 207 17 420q-65 527 112.5 553.5t197.5 -521t-189 -858.5q-150 -263 -499 -273q-300 -8 -497 217q-171 194 -221 507l-31 521q-7 436 165 399z" />
    <glyph glyph-name="V" unicode="V" horiz-adv-x="1397" 
d="M1182 1561q112 -4 149 -131q31 -106 1 -219q-63 -240 -177 -463q-16 -29 -43 -93l-13 -29l-13 -31l-28 -65q-76 -174 -140 -280q-200 -335 -401 -238q-63 30 -119 105q-42 55 -81 137q-32 66 -65 167l-26 85q-16 53 -27 85q-10 29 -20 65l-19 65q-23 86 -38 129
q-20 60 -36 117q-20 73 -32 138q-29 167 5 259q32 85 123 85q89 0 133 -78q60 -106 100 -257q15 -56 31 -134l13 -68l14 -68l2 -10l3 -13q3 -17 6 -29l15 -73q23 -98 47 -172q72 -217 156 -214q145 5 196 198q32 116 41 419l2 57l2 56q2 63 6 110q9 119 28 195
q50 190 191 193h14z" />
    <glyph glyph-name="W" unicode="W" horiz-adv-x="2198" 
d="M1747 1172q-8 -48 -13 -110q-3 -41 -6 -108q-6 -131 -14 -163l-9 -39l-11 -41q-13 -47 -28 -82q-39 -91 -101 -133q-107 -72 -221 30q-43 38 -87 100q-30 44 -63 103l-9 16l-9 17l-21 37q-25 44 -46 77q-58 91 -110 137q-145 127 -268 -63q-15 -24 -60 -134l-37 -90
q-22 -51 -42 -88q-111 -206 -210 -59q-97 143 -73 344q4 35 13 85l7 43l8 44q19 108 20 180t-54 127q-62 60 -138 29q-112 -44 -132 -314q-7 -97 -1 -214q4 -88 14 -159q11 -85 67 -231q63 -169 141 -290q95 -148 186 -181q110 -39 203 94q55 78 94 213l15 54l15 55
q18 64 38 109q33 74 103 65q59 -9 122 -71q49 -49 102 -140l22 -40l21 -40q28 -52 44 -79q110 -188 253 -218q151 -31 302 75q132 92 209 242q46 90 91 222q54 159 78 301q62 385 -121 482q-37 20 -70 29q-170 45 -214 -223z" />
    <glyph glyph-name="X" unicode="X" horiz-adv-x="1626" 
d="M1537 286q57 -18 80 -75q19 -48 6 -104t-51 -87q-47 -37 -106 -18q-257 85 -572 322l-27 22l-26 21q-27 21 -45 30q-41 21 -82 -5q-73 -44 -182 -168l-43 -50l-45 -49q-52 -56 -97 -90q-50 -39 -114 -56q-68 -17 -121 -2q-65 18 -85 78q-20 62 18 155q29 71 139 142
q35 22 98 57l51 28l50 29q112 66 155 124q53 71 26 157q-33 105 -137 181q-39 29 -97 61l-52 27l-26 13l-25 14q-52 27 -97 81q-46 56 -62 113q-20 70 14 119q37 53 133 63q89 9 178 -80q13 -13 33 -35l32 -34q36 -39 62 -56q86 -58 179 -46q90 11 174 84q271 236 437 333
q54 31 108 7q45 -21 70 -72q25 -50 16 -101q-11 -59 -64 -89q-21 -13 -59 -34l-32 -18l-34 -19q-84 -47 -141 -83q-165 -106 -224 -195q-144 -218 133 -447q103 -85 251 -160q113 -58 203 -88z" />
    <glyph glyph-name="Y" unicode="Y" horiz-adv-x="1398" 
d="M1307 1611q36 -57 19 -140q-19 -99 -158 -245l-56 -58l-54 -58q-59 -66 -87 -117q-33 -60 -40 -231q-3 -57 -4 -159l-1 -84l-1 -85q-5 -201 -30 -302q-33 -136 -112 -154q-215 -50 -214 234q0 89 23 231q3 21 9 52l4 25l4 23q8 50 10 72q15 194 -128 334q-46 45 -141 116
l-38 29l-39 29q-44 33 -76 61q-48 42 -95 117q-50 80 -66 151q-19 82 16 124q42 49 156 36q136 -16 246 -150q19 -23 44 -59l22 -30l22 -30q54 -73 97 -113q87 -81 166 -40q61 32 132 147l30 50l29 52q37 67 56 98q65 104 116 118q9 3 18 4q82 14 121 -48z" />
    <glyph glyph-name="Z" unicode="Z" horiz-adv-x="1291" 
d="M663 267q-95 51 -70 200q9 53 34 122l21 54q5 11 10 24l5 11l5 11q42 101 125 240l36 59l35 58q43 70 69 117q76 134 49 237q-23 89 -122 147q-86 51 -215 69q-119 17 -233 2q-57 -8 -127 -33q-80 -28 -139 -68q-156 -103 -102 -230q25 -57 88 -74q48 -12 119 -1
q17 3 52 12l16 5l17 4l36 10q96 25 155 29q187 14 141 -155q-26 -96 -95 -211q-24 -41 -63 -100l-33 -49l-33 -50q-164 -249 -163 -429q1 -177 179 -244q68 -26 164 -36q69 -7 149 -7.5t118 -0.5q119 2 202 22q47 11 88 43q42 31 59 70q44 95 -74 150q-34 15 -79 12
q-17 -1 -40 -5q-303 -59 -384 -15z" />
    <glyph glyph-name="bracketleft" unicode="[" horiz-adv-x="717" 
 />
    <glyph glyph-name="backslash" unicode="\" horiz-adv-x="971" 
 />
    <glyph glyph-name="bracketright" unicode="]" horiz-adv-x="852" 
 />
    <glyph glyph-name="asciicircum" unicode="^" horiz-adv-x="986" 
 />
    <glyph glyph-name="underscore" unicode="_" horiz-adv-x="1276" 
 />
    <glyph glyph-name="grave" unicode="`" horiz-adv-x="552" 
d="M306 1776l62 -59q73 -70 117 -123q38 -45 28 -79q-11 -36 -71 -16q-58 19 -130 65q-28 18 -62 43l-29 21l-28 21q-10 8 -33 23l-18 13l-20 14q-47 34 -73 63q-74 83 -6 160q38 42 100 2q22 -14 49 -39q9 -8 21 -21l10 -9l8 -8l13 -13z" />
    <glyph glyph-name="a" unicode="a" horiz-adv-x="1270" 
d="M763 560q-3 0 11 3q15 3 23 5q11 2 1 -1q-159 -31 -208 36q-45 61 -9 218q2 8 7 35q2 14 4 23l5 26q14 66 31 112q49 138 129 118q42 -11 66 -80q7 -23 15 -58l3 -14l3 -13q3 -15 6 -24q5 -18 16 -54l9 -28l9 -28q19 -68 22 -112q9 -122 -108 -157q-31 -6 -35 -7z
M1101 852q-24 113 -54 203q-81 240 -205 317q-191 119 -353 -115q-57 -83 -111 -210q-19 -45 -40 -101l-16 -44l-7 -20l-7 -18l-65 -173l-67 -175q-79 -209 -121 -351q-29 -95 -1 -148q32 -59 124 -21q88 37 137 141l19 44l20 44q25 51 54 83q37 41 180 50q49 2 113 1
q21 0 48 -1h11h9q11 -1 17 -1q122 -3 169 -36q62 -44 51 -159q-1 -13 -5 -38l-3 -22l-3 -21q-7 -55 -4 -88q8 -100 104 -103q158 5 121 341q-12 104 -45 260l-13 57l-6 26l-5 25q-11 52 -15 74q-14 97 -31 179z" />
    <glyph glyph-name="b" unicode="b" horiz-adv-x="1214" 
d="M867 406q-46 -49 -96 -75q-69 -37 -161 -28q-88 8 -156 53q-86 56 -95 145q-3 33 3 86l2 23l3 24q4 30 5 50q4 45 64 51q20 3 55 1l27 -1q16 -1 25 -1h44q27 1 47 0q56 -1 98 -7q114 -17 166 -77q54 -63 33 -141q-14 -49 -64 -103zM511 1254q30 1 63 -3q28 -3 49 -8
q63 -15 101 -55q47 -49 15 -102q-52 -86 -214 -134q-120 -35 -129 104q0 6 -1 17l-1 10l-1 11q-2 27 -2 47q0 58 17 79q25 31 103 34zM1092 766q-69 77 -222 151q77 120 78 238q3 141 -115 208q-157 91 -343 85q-152 -4 -218 -53q-66 -48 -116 -193q-80 -234 -108 -566
q-3 -38 -5 -61q-2 -35 -3 -65q-3 -76 3 -136q14 -157 89 -241q132 -148 400 -141q214 7 429 100q124 53 186 177q56 115 44 255q-12 146 -99 242z" />
    <glyph glyph-name="c" unicode="c" horiz-adv-x="1288" 
d="M1104 1265q52 -29 80 -48q45 -31 68 -62q63 -86 -33 -184q-77 -49 -183 11q-123 81 -145 91q-157 70 -296 61q-169 -10 -223 -147q-86 -220 -44 -401q47 -201 245 -290l39 -18l38 -19q45 -20 77 -28q58 -14 167 -7l20 2l21 1q25 1 44 0q55 -5 86 -37q58 -58 23 -123
q-24 -45 -90 -82q-105 -59 -292 -41q-189 19 -371 149q-188 134 -254 307q-89 238 -29 472q57 219 224 366q169 149 383 163q232 16 445 -136z" />
    <glyph glyph-name="d" unicode="d" horiz-adv-x="1303" 
d="M305 480q-8 62 -1 156l3 38l3 35q4 45 5 61l2 38l3 38q4 42 8 74q11 79 36 129q61 124 235 118q156 -5 268 -79q132 -87 130 -236q0 -225 -144 -378q-145 -152 -374 -168q-151 -10 -174 174zM642 1413q-37 7 -75 13q-51 8 -100 13q-129 13 -223 3q-270 -29 -214 -239
q41 -157 44 -398q1 -75 -2 -205l-3 -101q-1 -56 -1 -98q0 -25 -2 -60l-3 -31l-3 -31q-6 -76 0 -117q17 -122 161 -122q447 0 734 142q154 77 243 233q85 149 87 325q3 292 -221 481q-169 143 -422 192z" />
    <glyph glyph-name="e" unicode="e" 
d="M322 866q35 88 85 160q40 56 141 95q114 45 145 -23q34 -76 -41 -192q-62 -95 -141 -149q-41 -28 -108 -44q-21 -5 -58 -11l-29 -6l-29 -5q-8 68 35 175zM832 373q-19 -6 -46 -18l-44 -19q-113 -46 -197 -23q-80 22 -143 83q-67 64 -83 141q189 -1 343 107
q160 113 206 294q31 127 -4 234q-33 100 -115 158t-187 56q-111 -2 -217 -72q-121 -79 -195 -215q-69 -126 -89 -283q-19 -151 11 -300q31 -151 105 -267q177 -275 524 -205q153 32 262 99q82 51 72 136q-10 86 -106 112q-8 0 -4 -2q3 -1 10 -2l8 -1q0 1 -14 5
q-45 0 -97 -18z" />
    <glyph glyph-name="f" unicode="f" horiz-adv-x="1146" 
d="M601 1571q-197 -39 -319 -134q-154 -119 -203 -261q-41 -121 -23 -323l57 -669l3 -31l3 -30q6 -34 16 -56q25 -56 93 -67q108 -3 116 129q3 46 -6 111q-2 22 -7 51l-2 11l-2 11q-3 12 -4 18q-33 198 182 269q71 23 197 42l50 6l48 7q55 8 88 15q66 14 122 65
q66 60 46 121t-98 62q-30 0 -68 -8q-14 -3 -31 -8q-12 -3 -28 -8q-222 -65 -369 -61q-104 3 -143 45q-41 43 -48 162q0 177 222 262q82 31 193 48q81 13 174 17q12 1 35 0h38q47 0 73 8q52 16 71 54q17 34 3 74q-12 39 -47 65q-37 28 -83 28q-192 7 -349 -25z" />
    <glyph glyph-name="g" unicode="g" horiz-adv-x="1498" 
d="M834 1145q-459 -200 -508 -578q-19 -135 68 -245.5t224 -128.5q262 -33 573 370q-177 72 -322 93l-41 5q-55 6 -67 10q-105 17 -101 116q35 140 406 93q175 -18 277 -49q126 -36 103 -227q-19 -140 -218 -332q-157 -149 -307 -237q-206 -119 -377 -99q-206 26 -357 273
q-144 228 -120 434q37 308 334 549q410 220 598.5 162t-165.5 -209z" />
    <glyph glyph-name="h" unicode="h" horiz-adv-x="1069" 
d="M957 815q10 -8 30 -11l18 -3l19 -4q60 -18 47 -69q-5 -17 -20 -39q-11 -16 -28 -32l-17 -17l-17 -16q-21 -17 -31 -28q-28 -32 -29 -73q-1 -19 0 -41l2 -39v-74q-7 -86 -77 -143q-111 -89 -165 -44q-42 36 -52 170q-8 104 -15 129q-17 66 -70 93q-62 31 -122 12
q-61 -22 -66 -91q-2 -24 7 -53l9 -28l8 -27q27 -73 17 -122q-13 -66 -65 -107q-58 -46 -120 -17q-50 24 -72 98q-7 25 -29 219q-6 57 -26 88q-9 12 -24 25l-15 11l-15 11q-41 29 -52 65q-26 82 7 117q25 28 96 34q3 15 8 68l3 24l2 26l5 55l38 240q75 303 272 233
q75 -27 30 -227l-39 -145q-25 -81 -27 -93q-21 -109 4 -161q29 -64 132 -57q33 2 67 10q38 10 60 24q35 23 45 101q41 381 44 449q4 115 43 161q50 58 168 34q40 -43 39 -82l-1 -17l-3 -18q-4 -22 -3 -38q4 -82 -18.5 -236.5t-23.5 -201.5q0 -5 -1 -15v-18q-2 -23 -1 -38
q1 -45 15 -63q4 -6 9 -9z" />
    <glyph glyph-name="i" unicode="i" horiz-adv-x="442" 
d="M270 1385q-1 -1 8 -1h13q6 0 -2 1q-137 0 -191 -253q-18 -86 -27 -203q-3 -38 -5 -87l-1 -19l-1 -17q-1 -19 -1 -30l-7 -110l-6 -111q-7 -138 -13 -221q-4 -49 -3 -84q1 -52 10 -91q25 -103 110 -117q123 -21 163 173q13 62 19 159q1 16 2 37l1 17l1 16q2 37 4 53
q1 8 4 30l1 9l1 11q2 12 3 22l13 116q17 167 21 297q12 397 -98 403h-19z" />
    <glyph glyph-name="j" unicode="j" horiz-adv-x="1008" 
d="M703 1237q-26 -99 -31 -318l-2 -92l-1 -92q-1 -110 -5 -173q-10 -185 -49 -240q-51 -70 -129 -82q-81 -14 -149 45q-24 20 -39 57q-6 13 -12 33l-11 34q-28 83 -88 102q-99 31 -131 -13q-27 -38 -4 -123q19 -72 66 -153q45 -76 82 -106q113 -91 245 -111q124 -19 237 29
q113 47 183 147q75 106 83 246q1 9 3 34v10l1 11l2 25q4 65 6 121q8 172 3 305q-14 403 -138 424q-86 14 -122 -120z" />
    <glyph glyph-name="k" unicode="k" horiz-adv-x="1271" 
d="M1092 340q-15 14 -39 33l-19 16l-19 15q-94 78 -122 123q-42 67 -31 167q12 107 105 202q16 17 41 40l42 40q53 50 83 88q48 62 54 143q6 93 -58 131q-75 45 -171 -28q-36 -27 -73 -70q-29 -33 -54 -70l-14 -21l-6 -8l-5 -8q-13 -20 -26 -38l-58 -78q-152 -193 -202 -145
q-49 48 -41 139q13 67 18 117q13 144 -38 205q-35 43 -91 56q-156 35 -244 -188q-32 -80 -53 -188q-8 -43 -14 -87q-5 -36 -8 -71q-39 -403 110 -717q45 -95 97 -140q74 -63 155 -21q57 30 69 98q8 48 -5 139l-6 37l-6 36q-6 43 -7 71q-3 77 28 116q47 59 109 23
q23 -13 49 -40q10 -10 21 -23q8 -9 18 -22q27 -35 74 -114l18 -31l19 -31q22 -36 40 -62q99 -143 218 -155q62 -6 94 23q31 27 45 94q15 67 -29 131q-24 34 -68 73z" />
    <glyph glyph-name="l" unicode="l" horiz-adv-x="1073" 
d="M648 371l-96 4l-95 1q-177 0 -182 152q-2 57 21 141q9 32 22 73l13 35l12 34q117 328 132 510q6 67 -22 111q-31 52 -98 52q-92 0 -150 -121q-21 -45 -37 -107q-7 -23 -12 -50q-4 -19 -10 -45q-1 -9 -6 -33l-3 -11l-2 -12q-3 -15 -5 -27q-15 -73 -27 -138
q-37 -201 -52 -360q-47 -486 108 -507q212 -30 536 12q7 1 18 3q13 2 28 4l70 11q92 17 92 28q58 24 81 65q21 37 8 78q-13 40 -52 65q-43 28 -100 28q-64 0 -192 4z" />
    <glyph glyph-name="m" unicode="m" horiz-adv-x="1441" 
d="M1140 1042q-22 -15 -51 -45l-24 -30l-26 -30q-65 -78 -106 -96q-62 -30 -127 32q-31 31 -43 84q-5 19 -9 48l-3 25l-3 25q-8 61 -24 96q-24 49 -75 77q-132 72 -281 -58q-132 -114 -229 -339q-96 -218 -103 -407q-7 -206 103 -264q136 -71 227 31q73 84 85 228
q1 16 -4 106q-3 44 -4 76q-1 43 0 78q7 201 95 190q42 -4 62 -57q13 -33 25 -115l4 -34l5 -32q6 -37 13 -63q19 -65 57 -89q55 -36 102 -27q37 5 81 42l18 16l19 17q24 22 39 34q46 37 90 44q31 -49 34 -138q2 -34 -1 -82l-2 -42l-2 -42q-6 -104 3 -157q14 -77 63 -111
q159 -110 200 57q15 55 18 149l1 37v18v17v56l3 36l2 38q4 49 5 77q6 93 3 161q-8 187 -80 296q-25 37 -48 58q-55 47 -112 9z" />
    <glyph glyph-name="n" unicode="n" horiz-adv-x="1095" 
d="M716 1684q-73 -5 -92 -70q-21 -71 40 -188l27 -48l27 -46q33 -56 45 -86q25 -60 40 -106q21 -65 28 -119q18 -140 -55 -217q-29 -31 -122 16l-38 20q-25 13 -38 19q-43 21 -69 25q-104 15 -160 -25q-39 -28 -98 -128q-143 -244 -196 -435q-28 -65 -15 -136
q13 -66 56 -110q44 -44 97 -40q60 6 111 74q66 87 93 248l10 65q6 38 12 64q15 73 40 127q42 -32 81 -93q13 -21 32 -55l15 -27l16 -26q37 -63 71 -92q46 -40 105 -45q107 -9 178 80q55 68 83 188q142 614 -211 1127q-45 44 -113 39z" />
    <glyph glyph-name="o" unicode="o" horiz-adv-x="1190" 
d="M642 1327q196 0 362.5 -217t166.5 -500q2 -235 -283 -403q-251 -145 -512 -148q-164 0 -249 186q-59 137 -59 322q0 283 134 501q161 257 440 259zM361 577q-2 -10 -3.5 -13.5t-25.5 -39.5t-24 -65q0 -47 53 -101l75 -37q32 -15 101 -17l85 7q63 5 184 138t123 303
q0 128 -74 236q-88 123 -220 123l-35 -2q-116 0 -178 -163q-55 -152 -61 -369z" />
    <glyph glyph-name="p" unicode="p" horiz-adv-x="1162" 
d="M631 1393q-86 -21 -146 -66l-20 -21l-28 -25l-40 -47q-177 -297 -177 -615q-209 82 -297 -68q-36 -216 293 -225q-4 -447 249 -349q55 45 66 109l-6 29q-24 123 -20 200q465 -14 604 390q155 719 -470 694zM929 873q-81 -330 -439 -291q12 360 195 605q43 27 74 34
q252 -39 170 -348z" />
    <glyph glyph-name="q" unicode="q" horiz-adv-x="1348" 
d="M1048 738q0 -76 -35 -175q-39 -108 -91 -149q-40 -31 -73 4q-13 13 -28 40l-14 24l-13 25q-34 62 -63 76q-41 20 -97 -36q-11 -11 -15 -37q-2 -10 -3 -24l-1 -26q-2 -64 -17 -67q-18 -4 -88 9q-74 14 -74 28q-80 22 -126 100q-43 75 -32 159q13 100 28 146q23 71 76 130
q151 168 406 238q173 47 230 -137q21 -66 27 -168q2 -38 3 -84v-40v-36zM986 1453q-131 42 -315 -20q-165 -56 -317 -174q-148 -115 -207 -229q-121 -236 -71 -524q19 -113 110 -233q90 -119 193 -168q114 -55 229 -51q14 0 29 2q10 1 24 3q27 4 36 3q29 -2 45 -63
q4 -14 7 -33l3 -33q4 -42 11 -64q23 -67 93 -69q69 -2 94 64q14 37 6 93q-3 20 -9 47l-5 23l-6 22q-12 45 -27 89q62 33 98 70q205 215 240 525q4 35 4 81l-1 40l-1 40q0 81 -19 182q-3 14 -10 36l-7 19l-6 19q-17 48 -17 75q-6 21 -8 26q-1 3 1 -5t4 -15q3 -9 3 -6
q-52 180 -204 228z" />
    <glyph glyph-name="r" unicode="r" horiz-adv-x="1070" 
d="M321 1019q54 82 130 133q79 55 150 51q79 -3 126 -80q54 -82 16 -173q-31 -75 -116 -140q-14 -11 -30 -22q-19 -14 -39 -27q-52 -32 -97 -52q-126 -53 -171 11q-40 55 -32 132q7 82 63 167zM944 211q-18 13 -47 30q-41 24 -100 66l-49 34l-49 35l-26 16l-26 17
q-31 20 -45 35q-41 43 4 94q25 29 85 56l24 11l24 10q26 13 44 26q158 114 202 259q23 78 8 171q-14 90 -61 169q-49 83 -120 130q-77 52 -165 52q-300 0 -452 -238q-127 -200 -127 -515v-420q0 -23 -3 -76l-3 -41l-1 -42q-1 -101 32 -153q34 -55 74 -57q33 -2 65 35
q29 33 46 84q17 50 14 88l-1 11l-1 11l-2 25q-2 30 -3 54q-2 66 7 105q25 108 137 18l142 -120l70 -61l69 -62l22 -20l23 -21q28 -24 49 -39q58 -41 112 -40q60 3 90 48q28 43 19 104q-6 40 -38 75q-17 18 -43 36z" />
    <glyph glyph-name="s" unicode="s" horiz-adv-x="1038" 
d="M812 1410q55 7 102 -16q45 -22 68 -63q25 -43 15 -89q-10 -50 -61 -88q-42 -21 -118 -46l-57 -19q-31 -11 -55 -22q-95 -43 -118 -64q-41 -36 -44 -109q-2 -32 16 -86l7 -23l8 -23q8 -28 11 -48l13 -46l15 -48q17 -58 26 -96q29 -113 29 -202q0 -160 -138 -249
q-116 -75 -281 -73l-32 1l-33 1q-40 3 -68 10q-78 22 -108 89q-23 53 10 108q23 36 73 74q33 13 97 9l26 -2l27 -2q31 -2 50 -3q100 -1 91 72q-11 139 -87 327q-69 175 -22 356q41 156 225 247q56 27 160 64l39 14l39 15q42 15 75 30z" />
    <glyph glyph-name="t" unicode="t" horiz-adv-x="981" 
d="M867 1327q59 -22 56 -111q-3 -102 -69 -156q-61 -50 -165 -50q-17 -6 -20 -67v-28v-28q1 -36 0 -48q-3 -44 -6 -114l-5 -115q-6 -138 -19 -230q-3 -22 -6 -41q-5 -28 -10 -53q-15 -66 -37 -112q-62 -138 -168 -94q-72 30 -70 142q0 34 8 90l3 21l3 20q3 23 4 37
q20 326 35 649q-54 -10 -152 3l-40 6l-39 6q-47 7 -78 9q-53 3 -73 51q-17 41 -2 92q15 53 53 79q45 30 100 6q42 -18 129 -30q95 -14 115 0q16 77 60 140q58 82 133 73q58 -8 77 -70q7 -23 8 -54q2 -23 1 -37l10 2l23 5q31 7 50 10q58 9 91 -3z" />
    <glyph glyph-name="u" unicode="u" horiz-adv-x="1310" 
d="M986 1255q-121 -12 -90 -142q10 -43 40 -107l12 -24l11 -23l18 -39q71 -160 43 -375q-30 -237 -167 -327q-110 -72 -214 -44q-91 24 -164 119q-67 87 -101 207q-33 117 -22 216q4 33 27 127q12 46 18 73q9 41 13 74q22 179 -94 233q-135 63 -202 -47q-55 -90 -60 -289
q-3 -159 24 -348q24 -163 48 -221q83 -197 281 -284q186 -82 405 -40q225 43 337 264q88 176 95 437q2 50 1 93q-1 61 -6 114q-13 142 -54 228q-66 139 -199 125z" />
    <glyph glyph-name="v" unicode="v" horiz-adv-x="1122" 
d="M855 1386q-112 -49 -125 -213q-3 -30 -2 -70v-35l1 -35q2 -88 -4 -128q-1 -11 -3 -45l-1 -16l-1 -18q-1 -22 -2 -39q-7 -108 -19 -183q-37 -240 -133 -219q-33 8 -37 40l-1 15v15q0 20 -3 32l-7 29l-12 45q-16 61 -34 122q-53 175 -108 301q-167 383 -310 222
q-55 -62 -21 -188q12 -45 37 -101l21 -45l10 -20l4 -10l5 -9l65 -134l65 -137q72 -156 110 -279q4 -12 9 -33l4 -20l5 -20q12 -57 22 -89q34 -107 93 -123q123 -33 227 69q85 85 122 216q15 53 38 123l20 61l21 61q50 152 72 247q9 38 29 108l17 57l17 59q38 143 31 226
q-6 86 -64 138q-61 54 -141 29z" />
    <glyph glyph-name="w" unicode="w" horiz-adv-x="1606" 
d="M1135 1058q3 -34 10 -78q5 -28 15 -77q18 -95 19 -126q1 -53 -15 -140q-19 -102 -51 -182q-89 -219 -223 -151q-29 15 -75 88q-9 14 -20 34l-21 35l-44 71q-53 83 -95 114q-56 40 -106 9q-52 -32 -65 -128q-5 -33 -6 -82v-19l-1 -19q0 -22 -1 -34q-3 -75 -50 -148
q-37 -55 -52 -49q-11 4 -37 65q-42 97 -40 217q1 44 8 108l6 55l6 57l1 7l1 9l2 19q2 24 3 44q2 58 -4 96q-19 112 -112 73q-82 -34 -111 -206q-10 -59 -15 -140q-1 -25 -2 -62l-1 -14v-13q-1 -14 -1 -23q-15 -273 115 -454q70 -97 176 -94q101 3 183 92q23 26 41 72l7 18
l7 18q7 20 12 31q16 32 38 39q28 7 78 -18l42 -22l43 -23q52 -27 90 -41q105 -40 192 -19q127 32 257 220q123 177 185 399q65 235 24 390q-48 178 -226 191q-39 3 -70 -1q-131 -20 -117 -208z" />
    <glyph glyph-name="x" unicode="x" horiz-adv-x="1394" 
d="M1055 341q-78 33 -202 99l-16 8l-9 4l-10 5q-25 12 -41 23q-49 31 -54 62q-5 41 64 87l29 18l29 16q36 20 47 27l133 94l131 95q52 39 61 100q7 56 -22 106q-30 51 -78 65q-53 16 -106 -23l-59 -43l-60 -42l-119 -86l-22 -17l-24 -20q-32 -26 -52 -40q-63 -46 -110 -54
q-67 -12 -80 75q-5 31 -3 74q1 17 3 35q1 13 3 28q9 64 -29 114q-34 44 -90 60t-100 -7q-49 -26 -58 -91q-22 -156 15 -307q5 -20 20 -59l11 -31l9 -30q19 -72 -11 -120q-26 -44 -91 -108l-26 -25l-26 -26q-29 -29 -47 -53q-41 -50 -33 -112q7 -56 48 -97q42 -42 92 -43
q55 -2 96 49l17 23l19 24q23 30 40 50q48 57 88 83q36 23 80 1q15 -8 36 -25l17 -13l16 -14q92 -73 189 -126q205 -112 427 -151q65 -12 114 25q45 33 61 89q15 57 -8 101q-26 50 -90 62q-126 22 -219 61z" />
    <glyph glyph-name="y" unicode="y" horiz-adv-x="1266" 
d="M1042 1277q-103 -21 -144 -158q-7 -25 -14 -59l-6 -29l-5 -30q-14 -76 -25 -108q-26 -77 -88 -122q-59 -42 -132 -45t-135 34q-66 40 -98 115q-15 36 -24 118l-3 34l-4 34q-4 40 -9 68q-31 158 -163 151q-166 -9 -157 -228q4 -81 32 -179q23 -81 53 -141
q54 -110 135 -168q77 -54 200 -78q29 -5 83 -2q17 1 48 4l49 4q123 9 162 -23q86 -70 36 -204q-45 -119 -135 -172q-91 -54 -220 -41q-50 5 -113 21l-56 15l-54 16q-122 37 -186 21q-89 -23 -58 -147q40 -154 250 -197q82 -16 183 -14q82 2 165 15q374 58 514 502
q55 174 71 398q13 181 0 379q-3 33 -7 62q-7 38 -17 67q-27 76 -82 88q-21 4 -46 -1z" />
    <glyph glyph-name="z" unicode="z" horiz-adv-x="1131" 
d="M1074 180q-37 -99 -213 -142q-66 -16 -148 -23q-62 -5 -125 -5h-29h-31q-37 1 -67 2q-81 3 -142 14q-166 29 -230 118q-94 133 39 322q46 64 125 145l33 33l30 30l54 53l28 29l28 29q33 35 56 64q60 75 76 143q26 106 -165 86q-32 -3 -78 -11l-38 -6l-36 -6
q-83 -13 -107 -6q-61 16 -51 83q13 80 98 131q67 39 161 52q140 20 317 16q60 -2 108 -9q62 -10 107 -30q115 -52 115 -167q0 -119 -84 -232q-32 -44 -83 -94l-45 -44l-47 -42q-26 -24 -95 -77q-36 -27 -54 -42l-53 -44q-125 -110 -142 -205q-14 -80 41 -109q45 -24 125 -12
q14 2 67 17l12 3l13 3l26 8l59 15q158 40 244 38q148 -3 101 -128z" />
    <glyph glyph-name="braceleft" unicode="{" horiz-adv-x="991" 
 />
    <glyph glyph-name="bar" unicode="|" horiz-adv-x="325" 
 />
    <glyph glyph-name="braceright" unicode="}" horiz-adv-x="795" 
 />
    <glyph glyph-name="asciitilde" unicode="~" horiz-adv-x="1157" 
 />
    <glyph glyph-name="exclamdown" unicode="&#xa1;" horiz-adv-x="464" 
 />
    <glyph glyph-name="cent" unicode="&#xa2;" horiz-adv-x="1255" 
 />
    <glyph glyph-name="sterling" unicode="&#xa3;" horiz-adv-x="1063" 
 />
    <glyph glyph-name="currency" unicode="&#xa4;" horiz-adv-x="1177" 
 />
    <glyph glyph-name="yen" unicode="&#xa5;" horiz-adv-x="1275" 
 />
    <glyph glyph-name="brokenbar" unicode="&#xa6;" horiz-adv-x="387" 
 />
    <glyph glyph-name="section" unicode="&#xa7;" horiz-adv-x="676" 
 />
    <glyph glyph-name="dieresis" unicode="&#xa8;" horiz-adv-x="790" 
d="M656 1727q51 0 77 -71q45 -23 45 -71q0 -74 -116 -89h-12q-97 11 -97 96v38q0 84 103 97zM161 1713q109 -28 109 -116q-15 -115 -102 -115h-7q-128 31 -128 109q37 122 128 122z" />
    <glyph glyph-name="copyright" unicode="&#xa9;" horiz-adv-x="1332" 
 />
    <glyph glyph-name="guillemotleft" unicode="&#xab;" horiz-adv-x="785" 
 />
    <glyph glyph-name="registered" unicode="&#xae;" horiz-adv-x="1559" 
 />
    <glyph glyph-name="macron" unicode="&#xaf;" horiz-adv-x="821" 
 />
    <glyph glyph-name="degree" unicode="&#xb0;" horiz-adv-x="418" 
 />
    <glyph glyph-name="acute" unicode="&#xb4;" horiz-adv-x="552" 
d="M282 1834l13 13l8 8l10 9q12 13 21 21q27 25 49 39q62 40 100 -2q69 -77 -6 -160q-25 -29 -73 -63l-19 -14l-19 -13q-23 -15 -33 -23l-28 -21l-29 -21q-34 -25 -62 -43q-72 -46 -130 -65q-60 -20 -71 16q-10 34 28 79q44 53 117 123l62 59z" />
    <glyph glyph-name="paragraph" unicode="&#xb6;" horiz-adv-x="759" 
 />
    <glyph glyph-name="periodcentered" unicode="&#xb7;" horiz-adv-x="361" 
 />
    <glyph glyph-name="periodcentered" unicode="&#x2219;" horiz-adv-x="361" 
 />
    <glyph glyph-name="cedilla" unicode="&#xb8;" horiz-adv-x="449" 
d="M235 69q-5 -16 -13 -39l-7 -19l-7 -18q-17 -43 -17 -57q44 3 92 -16q49 -19 79 -51q75 -80 -13 -160q-40 -36 -97 -51q-56 -15 -111 -5q-27 0 -59 19q-30 19 -48 44q-18 26 -11 43q8 20 49 20q22 0 45 -8l20 -7l19 -8q46 -17 89 3q89 41 6 64q-15 4 -36 8q-15 3 -38 6
q-47 8 -54 10q-33 10 -37 62q-4 45 13 108q17 59 43 102q27 46 49 46q71 0 44 -96z" />
    <glyph glyph-name="guillemotright" unicode="&#xbb;" horiz-adv-x="785" 
 />
    <glyph glyph-name="questiondown" unicode="&#xbf;" horiz-adv-x="1171" 
 />
    <glyph glyph-name="Agrave" unicode="&#xc0;" horiz-adv-x="1675" 
d="M1118 796v-1q-4 -5 -4 -7q-1 -1 4 7l-3 -4l-1 -3q-38 -64 -211 -74q-63 -4 -141 0q-58 3 -117 10q-146 15 -158 132q-5 46 11 112q11 46 37 117l11 31q24 64 57 126q43 80 89 129q124 134 238 13.5t179 -281.5q79 -193 10 -307h-1zM1122 802q1 1 -4 -6q3 4 4 6zM1531 160
l-13 61q-39 184 -46 305l-7 112q-5 64 -10 112q-16 125 -49 219q-40 109 -84 204q-58 125 -122 220q-167 250 -358 271q-189 22 -329 -174q-54 -74 -102 -182q-32 -73 -70 -181q-43 -124 -93 -321l-42 -162q-24 -96 -43 -162q-33 -118 -68 -210q-8 -20 -23 -51l-13 -24
l-11 -25q-25 -57 -15 -106q22 -100 135 -113q85 -9 124 34q45 50 98 158l21 42l21 42q25 46 49 79q144 195 360 214l36 3l38 3q43 3 77 3q90 1 149 -19q76 -25 91 -120q5 -37 3 -93l-3 -50l-4 -52q-8 -128 14 -187q33 -88 143 -102q94 -13 138 44q41 54 22 146zM747 2161
l63 -59q72 -70 117 -123q37 -45 27 -79q-11 -36 -70 -16q-58 19 -130 65q-29 18 -62 43l-30 21l-27 21l-33 23l-19 13l-19 14q-48 34 -74 63q-74 83 -5 160q37 42 100 2q22 -14 49 -39l21 -21l9 -9l9 -8l12 -13z" />
    <glyph glyph-name="Aacute" unicode="&#xc1;" horiz-adv-x="1675" 
 />
    <glyph glyph-name="Acircumflex" unicode="&#xc2;" horiz-adv-x="1675" 
 />
    <glyph glyph-name="Atilde" unicode="&#xc3;" horiz-adv-x="1675" 
 />
    <glyph glyph-name="Adieresis" unicode="&#xc4;" horiz-adv-x="1675" 
 />
    <glyph glyph-name="Aring" unicode="&#xc5;" horiz-adv-x="1675" 
 />
    <glyph glyph-name="AE" unicode="&#xc6;" horiz-adv-x="2587" 
d="M529 786q320 -112 684 -16q0 88 -100 367q-66 151 -107 213q-96 122 -193.5 81t-191.5 -299q0 -22 -28 -79q0 -5 -45 -172l-25 -95h6zM1575.5 -55q-312.5 128 -296.5 376q-19 91 -23 158q-43 27 -168 45h-8q-129 -4 -209 -4h-12q-271 -51 -383 -295q-6 0 -90 -178
q-80 -129 -148 -129h-51q-16 0 -43 16h-4q-74 0 -102 84v25q353 1395 624 1571q74 63 209 63q113 0 176 -61q62 -35 117 -111q20 -33 59 -76q83 -101 88.5 -14t168.5 179q103 60 305 74.5t258 12.5l83 -3q86 -3 159 -32q72 -42 90 -120l-1 -47q-2 -39 -63 -88
q-7 -16 -99 -66q-85 -49 -395 -64q-148 -27 -170 -142q-1 -20 -1 -43q-1 -220 231 -203q15 0 46 9q223 91 355 78.5t148 -96.5l-1 -18q-3 -80 -117 -105q-267 -19 -488.5 -82t-225.5 -157t40 -171q54 -95 177 -99q210 -50 402 21t303 -3.5t-258.5 -253.5t-682 -51z" />
    <glyph glyph-name="Ccedilla" unicode="&#xc7;" horiz-adv-x="1502" 
d="M666 54q-295 81 -494 374q-209 308 -111 700q69 277 322 460q250 181 538 169q80 -3 159 -33q164 -59 164 -196q0 -69 -63 -91q-47 -16 -141 -6q-33 4 -85 12l-43 7l-42 7q-100 17 -150 13q-185 -15 -299 -137q-106 -114 -125 -294q-19 -186 56 -376q78 -198 165 -289
q127 -106 311 -117q67 -4 169 3l43 4l45 3q55 4 91 6q60 4 120 -3q71 -7 115 -27q124 -56 3 -177q-107 -106 -337 -95q-264 29 -285 -42t-21 -83l88 -8q89 -13 108 -76q8 -36 8 -52v-12q1 -129 -188 -148h-68q-55 0 -116 48q-12 22 -12 36q10 48 56 48q17 0 72 -32h60
q49 0 96 44v8q-9 40 -40 40q-152 0 -152 24q-11 0 -20 52v16q0 51 36 136q21 64 -33 84z" />
    <glyph glyph-name="Egrave" unicode="&#xc8;" horiz-adv-x="1549" 
d="M577 688q218 63 489 82q113 25 117 105l1 18q-16 83 -148 97q-61 5 -138 -15q-27 -8 -67 -21l-33 -12l-33 -11q-148 -50 -279 -21q-94 21 -98 142q-3 113 61 178q41 43 113 56q25 4 63 7l33 1l32 2q171 10 268 48q76 30 127 80q58 59 44 134q-14 74 -86 115
q-46 25 -119 33q-26 2 -63 3l-31 1h-29q-65 2 -258 -12q-201 -15 -306 -75q-162 -93 -154 -281l4 -195q2 -211 -18 -268q-21 -57 -108 -57q-87 -1 -91 -107q-3 -106 210 -66q43 -4 41 -134q-1 -41 -15 -120l-6 -32l-6 -32q-6 -37 -9 -65q-15 -155 66 -227q37 -32 105 -38
q22 -1 59 -1l29 1l29 -1q418 18 474 24l329 44q82 11 111 104q-1 119 -214 123q-103 0 -250 -18q-148 -20 -254 -16q-123 4 -178 99q-44 77 -40 171q4 93 226 157zM721 2172l63 -59q72 -70 117 -123q37 -45 27 -79q-11 -36 -71 -16q-57 19 -130 65q-28 18 -61 43l-30 21
l-28 21q-10 8 -32 23l-19 13l-19 14q-48 34 -74 63q-74 83 -5 160q37 42 100 2q22 -14 49 -39l21 -21l9 -9l9 -8l12 -13z" />
    <glyph glyph-name="Eacute" unicode="&#xc9;" horiz-adv-x="1549" 
 />
    <glyph glyph-name="Ecircumflex" unicode="&#xca;" horiz-adv-x="1549" 
 />
    <glyph glyph-name="Edieresis" unicode="&#xcb;" horiz-adv-x="1549" 
 />
    <glyph glyph-name="Igrave" unicode="&#xcc;" horiz-adv-x="938" 
 />
    <glyph glyph-name="Iacute" unicode="&#xcd;" horiz-adv-x="938" 
 />
    <glyph glyph-name="Icircumflex" unicode="&#xce;" horiz-adv-x="938" 
 />
    <glyph glyph-name="Idieresis" unicode="&#xcf;" horiz-adv-x="938" 
d="M669 236q-93 56 -119 206q-9 56 -10 130q-1 28 0 61l1 29l1 27l6 137l7 136q7 163 7 272v26l-1 24q0 27 2 43q7 45 46 76q18 14 57 27l34 11q21 6 34 11q81 31 84 94q3 84 -113 89h-22l-255 -11l-190 6q-19 1 -31 1q-18 0 -33 -1q-39 -2 -67 -10q-74 -22 -77 -93
q-2 -56 54 -86q17 -9 53 -23l27 -10l25 -11q119 -61 134 -200q11 -96 10 -238l-2 -119v-119q0 -35 5 -95l4 -49l3 -49q6 -118 -19 -190q-16 -46 -55 -70l-17 -10l-19 -10q-23 -14 -39 -28q-76 -64 -45 -118q28 -50 122 -64q219 -35 388 -1q92 18 113 57q18 36 -24 82
q-28 30 -79 60zM726 2037q52 0 77 -71q45 -23 45 -71q0 -74 -115 -89h-13q-96 11 -96 96v38q0 84 102 97zM232 2023q109 -28 109 -116q-15 -115 -103 -115h-6q-129 31 -129 109q37 122 129 122z" />
    <glyph glyph-name="Eth" unicode="&#xd0;" horiz-adv-x="1458" 
 />
    <glyph glyph-name="Ntilde" unicode="&#xd1;" horiz-adv-x="1668" 
 />
    <glyph glyph-name="Ograve" unicode="&#xd2;" horiz-adv-x="1480" 
 />
    <glyph glyph-name="Oacute" unicode="&#xd3;" horiz-adv-x="1480" 
d="M1078 432q-57 -86 -150 -138q-94 -53 -200 -58q-113 -5 -216 45q-161 77 -184 291q-18 168 49 362l12 35l12 36q14 43 27 73q34 83 79 127q83 81 136 101q48 19 165 19q190 0 278 -265q33 -100 49 -228q12 -103 10 -200q-7 -109 -67 -200zM868 1576q-23 3 -54 6l-53 4
q-238 18 -392 -34q-102 -35 -152 -99q-36 -14 -43 -105q-2 -29 -1 -69v-15l1 -14v-20q-8 -66 -46 -187l-15 -48l-15 -49q-16 -55 -25 -97q-41 -207 -13 -373q36 -205 176 -317q257 -206 636 -145q118 19 229 81q49 28 110 94l25 28l25 28q29 33 48 52q82 81 108 229
q19 107 8 255q-21 273 -163 518q-55 94 -155 170q-38 28 -78 51q-32 18 -59 30q-42 18 -102 26zM880 2101l13 13l8 8l10 9q12 13 21 21q27 25 49 39q62 40 100 -2q68 -77 -6 -160q-26 -29 -73 -63l-20 -14l-18 -13q-23 -15 -33 -23l-28 -21l-29 -21q-34 -25 -62 -43
q-72 -46 -130 -65q-60 -20 -71 16q-10 34 28 79q44 53 117 123l62 59z" />
    <glyph glyph-name="Ocircumflex" unicode="&#xd4;" horiz-adv-x="1480" 
 />
    <glyph glyph-name="Otilde" unicode="&#xd5;" horiz-adv-x="1480" 
 />
    <glyph glyph-name="Odieresis" unicode="&#xd6;" horiz-adv-x="1480" 
d="M1078 432q-57 -86 -150 -138q-94 -53 -200 -58q-113 -5 -216 45q-161 77 -184 291q-18 168 49 362l12 35l12 36q14 43 27 73q34 83 79 127q83 81 136 101q48 19 165 19q190 0 278 -265q33 -100 49 -228q12 -103 10 -200q-7 -109 -67 -200zM868 1576q-23 3 -54 6l-53 4
q-238 18 -392 -34q-102 -35 -152 -99q-36 -14 -43 -105q-2 -29 -1 -69v-15l1 -14v-20q-8 -66 -46 -187l-15 -48l-15 -49q-16 -55 -25 -97q-41 -207 -13 -373q36 -205 176 -317q257 -206 636 -145q118 19 229 81q49 28 110 94l25 28l25 28q29 33 48 52q82 81 108 229
q19 107 8 255q-21 273 -163 518q-55 94 -155 170q-38 28 -78 51q-32 18 -59 30q-42 18 -102 26zM988 1988q60 0 90 -82q52 -27 52 -83q0 -86 -135 -103h-15q-111 13 -111 111v44q0 98 119 113zM477 1984q109 -28 109 -116q-15 -115 -102 -115h-7q-128 31 -128 109
q37 122 128 122z" />
    <glyph glyph-name="multiply" unicode="&#xd7;" horiz-adv-x="786" 
 />
    <glyph glyph-name="Oslash" unicode="&#xd8;" horiz-adv-x="1455" 
d="M908 271q-118 -64 -223 -44q-63 12 -45 99q6 31 25 79l15 40l78 191l34 76l34 77l106 243q3 6 7 16l6 20q9 27 17 42q24 49 60 47q44 -2 74 -87q11 -29 20 -68l7 -30l2 -12l3 -11q78 -334 -16 -476.5t-204 -201.5zM756 970l-54 -119q-65 -143 -125 -295t-77 -179
q-23 -38 -49 -37q-28 1 -70 49q-19 22 -32 69q-5 16 -11 39l-4 19l-4 17q-32 133 0 291q31 148 106 270q85 137 206 201q40 22 87 29q57 8 89 -12q49 -32 35 -107q-5 -27 -20 -62q-5 -13 -12 -29l-6 -13l-5 -12zM1325 1179q-50 110 -98 171q-7 10 -16 20l-8 8l-8 8
q-18 19 -24 28q-20 28 -13 82q3 17 11 39l7 19l7 19q17 46 9 76q-9 37 -41 42q-29 5 -56 -18q-90 -78 -124 -91q-47 -19 -154 -5q-83 9 -157 10q-104 2 -187 -9q-227 -33 -281 -164q-16 -39 -15 -106v-27l1 -26q-1 -31 -4 -54q-9 -52 -29 -119l-18 -59l-18 -58
q-63 -203 -59 -378q5 -217 115 -358q51 -65 137 -120l15 -9l13 -6q16 -8 21 -12q18 -13 7 -42l-6 -14l-6 -16q-6 -18 -10 -32q-10 -38 -4 -66q12 -60 62 -43q45 15 69 60q17 32 29 65q11 28 35 24q6 0 23 -6l14 -4l15 -3q99 -16 207 -7q260 21 399 155q56 54 90 91
q50 54 80 99q56 85 72 209q11 92 -2 263t-100 364z" />
    <glyph glyph-name="Ugrave" unicode="&#xd9;" horiz-adv-x="1526" 
 />
    <glyph glyph-name="Uacute" unicode="&#xda;" horiz-adv-x="1526" 
 />
    <glyph glyph-name="Ucircumflex" unicode="&#xdb;" horiz-adv-x="1526" 
 />
    <glyph glyph-name="Udieresis" unicode="&#xdc;" horiz-adv-x="1526" 
 />
    <glyph glyph-name="Yacute" unicode="&#xdd;" horiz-adv-x="1414" 
 />
    <glyph glyph-name="Thorn" unicode="&#xde;" horiz-adv-x="1466" 
 />
    <glyph glyph-name="germandbls" unicode="&#xdf;" horiz-adv-x="1353" 
d="M549 56q-73 122 2 195q64 61 200 68q48 3 101 16q63 15 110 39q122 65 87 169q-28 83 -166 182l-26 19l-26 19q-29 22 -49 42q-52 48 -74 103q-21 51 -18 122q1 25 6 62l4 31l4 31q7 54 4 115q-3 73 -21 129q-46 150 -171 140q-106 -8 -163 -157q-21 -54 -36 -128
q-6 -27 -11 -60q-2 -12 -4 -26l-2 -13l-2 -12q-27 -181 -31 -425q-1 -65 3 -149l5 -74l5 -75q14 -193 10 -297q-1 -41 -14 -86q-15 -50 -38 -82q-59 -82 -141 -2q-59 57 -66 168q-2 40 1 96l3 47q2 28 2 44q4 90 0 235l-4 118q-2 68 -2 118q-4 228 17 383q60 446 339 561
q112 44 216 40q231 -9 287 -220q19 -74 23 -197l1 -51l1 -51q1 -62 3 -98q6 -113 79 -223q28 -43 72 -94l39 -46l40 -44q101 -114 140 -190q59 -114 45 -240q-18 -172 -198 -301q-177 -127 -356 -103q-151 19 -230 152z" />
    <glyph glyph-name="agrave" unicode="&#xe0;" horiz-adv-x="1270" 
d="M763 560q-3 0 11 3q15 3 23 5q11 2 1 -1q-159 -31 -208 36q-45 61 -9 218q2 8 7 35q2 14 4 23l5 26q14 66 31 112q49 138 129 118q42 -11 66 -80q7 -23 15 -58l3 -14l3 -13q3 -15 6 -24q5 -18 16 -54l9 -28l9 -28q19 -68 22 -112q9 -122 -108 -157q-31 -6 -35 -7z
M1101 852q-24 113 -54 203q-81 240 -205 317q-191 119 -353 -115q-57 -83 -111 -210q-19 -45 -40 -101l-16 -44l-7 -20l-7 -18l-65 -173l-67 -175q-79 -209 -121 -351q-29 -95 -1 -148q32 -59 124 -21q88 37 137 141l19 44l20 44q25 51 54 83q37 41 180 50q49 2 113 1
q21 0 48 -1h11h9q11 -1 17 -1q122 -3 169 -36q62 -44 51 -159q-1 -13 -5 -38l-3 -22l-3 -21q-7 -55 -4 -88q8 -100 104 -103q158 5 121 341q-12 104 -45 260l-13 57l-6 26l-5 25q-11 52 -15 74q-14 97 -31 179zM687 1776l63 -59q72 -70 117 -123q37 -45 27 -79
q-11 -36 -70 -16q-58 19 -130 65q-28 18 -62 43l-29 21l-28 21l-33 23l-19 13l-19 14q-48 34 -73 63q-75 83 -6 160q37 42 100 2q22 -14 49 -39q9 -8 21 -21l9 -9l9 -8l12 -13z" />
    <glyph glyph-name="aacute" unicode="&#xe1;" horiz-adv-x="1270" 
 />
    <glyph glyph-name="acircumflex" unicode="&#xe2;" horiz-adv-x="1270" 
 />
    <glyph glyph-name="atilde" unicode="&#xe3;" horiz-adv-x="1270" 
 />
    <glyph glyph-name="adieresis" unicode="&#xe4;" horiz-adv-x="1270" 
 />
    <glyph glyph-name="aring" unicode="&#xe5;" horiz-adv-x="1270" 
 />
    <glyph glyph-name="ae" unicode="&#xe6;" horiz-adv-x="2076" 
d="M1264.5 4q-249.5 102 -236.5 300q-15 73 -18 126q-35 22 -134 36h-7q-103 -3 -167 -3h-9q-216 -41 -306 -235q-4 0 -71 -142q-64 -103 -118 -103h-41q-13 0 -34 12h-4q-59 0 -81 67v20q282 1113 498 1253q59 51 166 51q91 0 141 -49q49 -28 93 -88q16 -27 47 -61
q67 -81 71 -11.5t134 143.5q82 47 243.5 59t205.5 10l66 -2q69 -3 127 -26q58 -33 72 -96l-1 -37q-1 -31 -50 -70q-6 -13 -79 -53q-68 -39 -315 -51q-118 -22 -136 -113v-35q-1 -175 184 -162q12 0 37 8q177 72 282.5 62t118.5 -77l-1 -14q-2 -64 -93 -84
q-213 -15 -390 -65.5t-180 -125t32 -136.5q43 -76 141 -79q168 -40 321 17t241.5 -2.5t-206 -202.5t-544 -41zM682 638q3 0 -11 3t-22 4q-10 2 0 -1q151 -29 198 35q42 58 9 207q-2 8 -7 34q-3 13 -4 22l-5 24q-14 63 -29 107q-48 131 -124 112q-39 -10 -62 -76
q-7 -22 -15 -56l-3 -13l-2 -12q-3 -14 -6 -22l-15 -52l-9 -27l-8 -27q-19 -64 -22 -106q-7 -116 104 -150q29 -6 33 -6z" />
    <glyph glyph-name="ccedilla" unicode="&#xe7;" horiz-adv-x="1288" 
d="M532 -173v-16q17 -86 172 -76q31 0 35.5 -24t-35 -51.5t-105.5 -6t-83 21.5q-46 0 -56 -48q0 -14 12 -36q62 -48 116 -48h68q71 0 100 28q88 39 88 120v12q0 16 -8 52q-54 97 -196 84q0 10 18 69t50 56q180 -17 281 39q60 33 82 74q27 51 -20 99q-26 27 -74 31
q-17 1 -41 0l-21 -1l-19 -2q-113 -7 -174 8q-34 8 -80 29l-39 19l-38 18q-207 93 -256 303q-44 187 45 413q58 149 240 160q143 9 305 -63q24 -11 70 -42l19 -13l19 -13l39 -24q96 -53 161 -13q82 85 29 158q-21 28 -64 57q-27 18 -79 47q-207 149 -433 133
q-207 -13 -371 -158q-162 -143 -217 -356q-59 -228 28 -460q64 -168 246 -298q116 -83 175.5 -101t35 -76.5t-24.5 -104.5z" />
    <glyph glyph-name="egrave" unicode="&#xe8;" 
d="M322 866q35 88 85 160q40 56 141 95q114 45 145 -23q34 -76 -41 -192q-62 -95 -141 -149q-41 -28 -108 -44q-21 -5 -58 -11l-29 -6l-29 -5q-8 68 35 175zM832 373q-19 -6 -46 -18l-44 -19q-113 -46 -197 -23q-80 22 -143 83q-67 64 -83 141q189 -1 343 107
q160 113 206 294q31 127 -4 234q-33 100 -115 158t-187 56q-111 -2 -217 -72q-121 -79 -195 -215q-69 -126 -89 -283q-19 -151 11 -300q31 -151 105 -267q177 -275 524 -205q153 32 262 99q82 51 72 136q-10 86 -106 112q-8 0 -4 -2q3 -1 10 -2l8 -1q0 1 -14 5
q-45 0 -97 -18zM577 1826l62 -59q73 -70 118 -123q37 -45 27 -79q-11 -36 -71 -16q-57 19 -130 65q-28 18 -61 43l-30 21l-28 21q-10 8 -33 23l-18 13l-20 14q-47 34 -73 63q-74 83 -6 160q38 42 101 2q21 -14 48 -39q9 -8 22 -21l9 -9l8 -8l13 -13z" />
    <glyph glyph-name="eacute" unicode="&#xe9;" 
 />
    <glyph glyph-name="ecircumflex" unicode="&#xea;" 
 />
    <glyph glyph-name="edieresis" unicode="&#xeb;" 
 />
    <glyph glyph-name="igrave" unicode="&#xec;" horiz-adv-x="443" 
 />
    <glyph glyph-name="iacute" unicode="&#xed;" horiz-adv-x="443" 
 />
    <glyph glyph-name="icircumflex" unicode="&#xee;" horiz-adv-x="443" 
 />
    <glyph glyph-name="idieresis" unicode="&#xef;" horiz-adv-x="460" 
d="M276 1435q-1 -1 8 -1h13q6 0 -2 1q-137 0 -191 -253q-18 -86 -27 -203q-3 -38 -5 -87l-1 -19l-1 -17q-1 -19 -1 -30l-7 -110l-6 -111q-7 -138 -13 -221q-4 -49 -3 -84q1 -52 10 -91q25 -103 110 -117q123 -21 163 173q13 62 19 159q1 16 2 37l1 17l1 16q2 37 4 53
q1 8 4 30l1 9l1 11q2 12 3 22l13 116q17 167 21 297q12 397 -98 403h-19zM508 1807q51 0 77 -71q45 -23 45 -71q0 -74 -116 -89h-13q-96 11 -96 96v38q0 84 103 97zM93 1813q109 -28 109 -116q-15 -115 -103 -115h-6q-128 31 -128 109q37 122 128 122z" />
    <glyph glyph-name="eth" unicode="&#xf0;" horiz-adv-x="1303" 
 />
    <glyph glyph-name="ntilde" unicode="&#xf1;" horiz-adv-x="1336" 
 />
    <glyph glyph-name="ograve" unicode="&#xf2;" horiz-adv-x="1141" 
 />
    <glyph glyph-name="oacute" unicode="&#xf3;" horiz-adv-x="1190" 
d="M642 1327q196 0 362.5 -217t166.5 -500q2 -235 -283 -403q-251 -145 -512 -148q-164 0 -249 186q-59 137 -59 322q0 283 134 501q161 257 440 259zM361 577q-2 -10 -3.5 -13.5t-25.5 -39.5t-24 -65q0 -47 53 -101l75 -37q32 -15 101 -17l85 7q63 5 184 138t123 303
q0 128 -74 236q-88 123 -220 123l-35 -2q-116 0 -178 -163q-55 -152 -61 -369zM871 1813l13 13l8 8l9 9q13 13 22 21q27 25 48 39q63 40 100 -2q69 -77 -5 -160q-26 -29 -73 -63l-20 -14l-18 -13q-23 -15 -33 -23l-28 -21l-30 -21q-33 -25 -61 -43q-73 -46 -130 -65
q-60 -20 -71 16q-10 34 27 79q45 53 118 123l62 59z" />
    <glyph glyph-name="ocircumflex" unicode="&#xf4;" horiz-adv-x="1141" 
 />
    <glyph glyph-name="otilde" unicode="&#xf5;" horiz-adv-x="1141" 
 />
    <glyph glyph-name="odieresis" unicode="&#xf6;" horiz-adv-x="1141" 
d="M603 1243q184 0 339.5 -203t155.5 -466q2 -220 -265 -377q-234 -135 -478 -138q-153 0 -232 173q-55 129 -55 302q0 264 125 468q151 239 410 241zM342 543q-2 -9 -3.5 -12.5t-24 -37t-22.5 -61.5q0 -43 50 -94l69 -34q30 -14 95 -16l79 7q59 4 172 128t115 283
q0 119 -69 220q-82 115 -206 115l-32 -2q-109 0 -166 -152q-52 -142 -57 -344zM813 1575q47 0 70 -64q41 -21 41 -64q0 -67 -105 -82h-12q-87 11 -87 88v34q0 76 93 88zM420 1562q99 -25 99 -104q-14 -105 -93 -105h-6q-116 29 -116 99q33 110 116 110z" />
    <glyph glyph-name="divide" unicode="&#xf7;" horiz-adv-x="1064" 
 />
    <glyph glyph-name="oslash" unicode="&#xf8;" horiz-adv-x="1141" 
d="M746 420l-19 -21q-24 -24 -43 -40q-52 -43 -100 -48l-17 -2l-17 -2q-19 -2 -28 0q-26 5 -12 47q91 277 246 438q58 60 95 14q32 -41 24 -120q-14 -141 -111 -246zM311 679q19 57 47 121q10 24 22 50l10 20q4 8 8 17q15 31 47 71q36 47 74 76q103 82 158 -3
q30 -45 -10 -137q-14 -33 -37 -73q-9 -13 -19 -31l-9 -13l-7 -12q-12 -19 -29 -43l-31 -42q-39 -54 -57 -87q-4 -8 -12 -26l-8 -17l-8 -19q-22 -51 -39 -79q-55 -93 -105 -43q-14 14 -22 36q-27 75 27 234zM968 1135q2 13 9 29l7 14l8 13q18 35 14 61q-10 64 -68 33
q-10 -5 -24 -15l-12 -8l-12 -9q-29 -20 -39 -24q-51 -20 -131 5l-32 11l-33 9q-38 10 -69 8q-151 -8 -281 -126q-118 -107 -175 -260q-96 -260 -33 -524q29 -122 88 -193q7 -8 18 -17l8 -6l6 -6q11 -12 -1 -36l-22 -49l-24 -49q-21 -42 21 -46q16 -1 35 4q18 4 27 11
q18 13 29 35l8 18l7 18q18 40 65 40q271 3 515 161q106 69 165 175q60 109 59 234q-1 127 -51 241q-7 17 -21 42l-22 43q-27 53 -36 90q-8 38 -3 73z" />
    <glyph glyph-name="ugrave" unicode="&#xf9;" horiz-adv-x="1310" 
 />
    <glyph glyph-name="uacute" unicode="&#xfa;" horiz-adv-x="1310" 
 />
    <glyph glyph-name="ucircumflex" unicode="&#xfb;" horiz-adv-x="1310" 
 />
    <glyph glyph-name="udieresis" unicode="&#xfc;" horiz-adv-x="1310" 
 />
    <glyph glyph-name="yacute" unicode="&#xfd;" horiz-adv-x="1395" 
 />
    <glyph glyph-name="thorn" unicode="&#xfe;" horiz-adv-x="1229" 
 />
    <glyph glyph-name="ydieresis" unicode="&#xff;" horiz-adv-x="1266" 
 />
    <glyph glyph-name="Amacron" unicode="&#x100;" horiz-adv-x="1675" 
 />
    <glyph glyph-name="amacron" unicode="&#x101;" horiz-adv-x="1270" 
 />
    <glyph glyph-name="Abreve" unicode="&#x102;" horiz-adv-x="1675" 
 />
    <glyph glyph-name="abreve" unicode="&#x103;" horiz-adv-x="1270" 
 />
    <glyph glyph-name="Aogonek" unicode="&#x104;" horiz-adv-x="1675" 
 />
    <glyph glyph-name="aogonek" unicode="&#x105;" horiz-adv-x="1270" 
 />
    <glyph glyph-name="Cacute" unicode="&#x106;" horiz-adv-x="1502" 
 />
    <glyph glyph-name="cacute" unicode="&#x107;" horiz-adv-x="1288" 
 />
    <glyph glyph-name="Ccircumflex" unicode="&#x108;" horiz-adv-x="1502" 
 />
    <glyph glyph-name="ccircumflex" unicode="&#x109;" horiz-adv-x="1288" 
 />
    <glyph glyph-name="Cdotaccent" unicode="&#x10a;" horiz-adv-x="1502" 
 />
    <glyph glyph-name="cdotaccent" unicode="&#x10b;" horiz-adv-x="1288" 
 />
    <glyph glyph-name="Ccaron" unicode="&#x10c;" horiz-adv-x="1502" 
 />
    <glyph glyph-name="ccaron" unicode="&#x10d;" horiz-adv-x="1288" 
 />
    <glyph glyph-name="Dcaron" unicode="&#x10e;" horiz-adv-x="1458" 
 />
    <glyph glyph-name="dcaron" unicode="&#x10f;" horiz-adv-x="1368" 
 />
    <glyph glyph-name="Dcroat" unicode="&#x110;" horiz-adv-x="1458" 
 />
    <glyph glyph-name="dcroat" unicode="&#x111;" horiz-adv-x="1303" 
 />
    <glyph glyph-name="Emacron" unicode="&#x112;" horiz-adv-x="1549" 
 />
    <glyph glyph-name="emacron" unicode="&#x113;" 
 />
    <glyph glyph-name="Ebreve" unicode="&#x114;" horiz-adv-x="1549" 
 />
    <glyph glyph-name="ebreve" unicode="&#x115;" 
 />
    <glyph glyph-name="Edotaccent" unicode="&#x116;" horiz-adv-x="1549" 
 />
    <glyph glyph-name="edotaccent" unicode="&#x117;" 
 />
    <glyph glyph-name="Eogonek" unicode="&#x118;" horiz-adv-x="1461" 
 />
    <glyph glyph-name="eogonek" unicode="&#x119;" 
 />
    <glyph glyph-name="Ecaron" unicode="&#x11a;" horiz-adv-x="1549" 
 />
    <glyph glyph-name="ecaron" unicode="&#x11b;" 
 />
    <glyph glyph-name="Gcircumflex" unicode="&#x11c;" horiz-adv-x="1529" 
 />
    <glyph glyph-name="gcircumflex" unicode="&#x11d;" horiz-adv-x="1498" 
 />
    <glyph glyph-name="Gbreve" unicode="&#x11e;" horiz-adv-x="1529" 
 />
    <glyph glyph-name="gbreve" unicode="&#x11f;" horiz-adv-x="1498" 
 />
    <glyph glyph-name="Gdotaccent" unicode="&#x120;" horiz-adv-x="1529" 
 />
    <glyph glyph-name="gdotaccent" unicode="&#x121;" horiz-adv-x="1498" 
 />
    <glyph glyph-name="uni0122" unicode="&#x122;" horiz-adv-x="1530" 
 />
    <glyph glyph-name="uni0123" unicode="&#x123;" horiz-adv-x="1498" 
 />
    <glyph glyph-name="Hcircumflex" unicode="&#x124;" horiz-adv-x="1400" 
 />
    <glyph glyph-name="hcircumflex" unicode="&#x125;" horiz-adv-x="1049" 
 />
    <glyph glyph-name="Hbar" unicode="&#x126;" horiz-adv-x="1400" 
 />
    <glyph glyph-name="hbar" unicode="&#x127;" horiz-adv-x="1049" 
 />
    <glyph glyph-name="Itilde" unicode="&#x128;" horiz-adv-x="867" 
 />
    <glyph glyph-name="itilde" unicode="&#x129;" horiz-adv-x="443" 
 />
    <glyph glyph-name="Imacron" unicode="&#x12a;" horiz-adv-x="938" 
 />
    <glyph glyph-name="imacron" unicode="&#x12b;" horiz-adv-x="443" 
 />
    <glyph glyph-name="Ibreve" unicode="&#x12c;" horiz-adv-x="938" 
 />
    <glyph glyph-name="ibreve" unicode="&#x12d;" horiz-adv-x="443" 
 />
    <glyph glyph-name="Iogonek" unicode="&#x12e;" horiz-adv-x="867" 
 />
    <glyph glyph-name="iogonek" unicode="&#x12f;" horiz-adv-x="442" 
 />
    <glyph glyph-name="Idotaccent" unicode="&#x130;" horiz-adv-x="938" 
 />
    <glyph glyph-name="dotlessi" unicode="&#x131;" horiz-adv-x="443" 
 />
    <glyph glyph-name="IJ" unicode="&#x132;" horiz-adv-x="2120" 
 />
    <glyph glyph-name="ij" unicode="&#x133;" horiz-adv-x="1443" 
 />
    <glyph glyph-name="Jcircumflex" unicode="&#x134;" horiz-adv-x="1253" 
 />
    <glyph glyph-name="jcircumflex" unicode="&#x135;" horiz-adv-x="1022" 
 />
    <glyph glyph-name="uni0136" unicode="&#x136;" horiz-adv-x="1360" 
 />
    <glyph glyph-name="uni0137" unicode="&#x137;" horiz-adv-x="1271" 
 />
    <glyph glyph-name="kgreenlandic" unicode="&#x138;" horiz-adv-x="1271" 
 />
    <glyph glyph-name="Lacute" unicode="&#x139;" horiz-adv-x="1137" 
 />
    <glyph glyph-name="lacute" unicode="&#x13a;" horiz-adv-x="1073" 
 />
    <glyph glyph-name="uni013B" unicode="&#x13b;" horiz-adv-x="1189" 
 />
    <glyph glyph-name="uni013C" unicode="&#x13c;" horiz-adv-x="1073" 
 />
    <glyph glyph-name="Lcaron" unicode="&#x13d;" horiz-adv-x="1189" 
 />
    <glyph glyph-name="lcaron" unicode="&#x13e;" horiz-adv-x="1073" 
 />
    <glyph glyph-name="Ldot" unicode="&#x13f;" horiz-adv-x="1189" 
 />
    <glyph glyph-name="ldot" unicode="&#x140;" horiz-adv-x="1073" 
 />
    <glyph glyph-name="Lslash" unicode="&#x141;" horiz-adv-x="1253" 
 />
    <glyph glyph-name="lslash" unicode="&#x142;" horiz-adv-x="1058" 
 />
    <glyph glyph-name="Nacute" unicode="&#x143;" horiz-adv-x="1668" 
 />
    <glyph glyph-name="nacute" unicode="&#x144;" horiz-adv-x="1095" 
 />
    <glyph glyph-name="uni0145" unicode="&#x145;" horiz-adv-x="1580" 
 />
    <glyph glyph-name="uni0146" unicode="&#x146;" horiz-adv-x="1095" 
 />
    <glyph glyph-name="Ncaron" unicode="&#x147;" horiz-adv-x="1668" 
 />
    <glyph glyph-name="ncaron" unicode="&#x148;" horiz-adv-x="1059" 
 />
    <glyph glyph-name="napostrophe" unicode="&#x149;" horiz-adv-x="1059" 
 />
    <glyph glyph-name="Eng" unicode="&#x14a;" horiz-adv-x="1678" 
 />
    <glyph glyph-name="eng" unicode="&#x14b;" horiz-adv-x="1256" 
 />
    <glyph glyph-name="Omacron" unicode="&#x14c;" horiz-adv-x="1455" 
 />
    <glyph glyph-name="omacron" unicode="&#x14d;" horiz-adv-x="1141" 
 />
    <glyph glyph-name="Obreve" unicode="&#x14e;" horiz-adv-x="1455" 
 />
    <glyph glyph-name="obreve" unicode="&#x14f;" horiz-adv-x="1141" 
 />
    <glyph glyph-name="Ohungarumlaut" unicode="&#x150;" horiz-adv-x="1455" 
 />
    <glyph glyph-name="ohungarumlaut" unicode="&#x151;" horiz-adv-x="1141" 
 />
    <glyph glyph-name="OE" unicode="&#x152;" horiz-adv-x="2076" 
 />
    <glyph glyph-name="oe" unicode="&#x153;" horiz-adv-x="1699" 
 />
    <glyph glyph-name="Racute" unicode="&#x154;" horiz-adv-x="1220" 
 />
    <glyph glyph-name="racute" unicode="&#x155;" horiz-adv-x="1070" 
 />
    <glyph glyph-name="uni0156" unicode="&#x156;" horiz-adv-x="1220" 
 />
    <glyph glyph-name="uni0157" unicode="&#x157;" horiz-adv-x="1070" 
 />
    <glyph glyph-name="Rcaron" unicode="&#x158;" horiz-adv-x="1220" 
 />
    <glyph glyph-name="rcaron" unicode="&#x159;" horiz-adv-x="1070" 
 />
    <glyph glyph-name="Sacute" unicode="&#x15a;" horiz-adv-x="1536" 
 />
    <glyph glyph-name="sacute" unicode="&#x15b;" horiz-adv-x="1073" 
 />
    <glyph glyph-name="Scircumflex" unicode="&#x15c;" horiz-adv-x="1342" 
 />
    <glyph glyph-name="scircumflex" unicode="&#x15d;" horiz-adv-x="1073" 
 />
    <glyph glyph-name="Scedilla" unicode="&#x15e;" horiz-adv-x="1342" 
 />
    <glyph glyph-name="scedilla" unicode="&#x15f;" horiz-adv-x="1073" 
 />
    <glyph glyph-name="Scaron" unicode="&#x160;" horiz-adv-x="1536" 
 />
    <glyph glyph-name="scaron" unicode="&#x161;" horiz-adv-x="1073" 
 />
    <glyph glyph-name="uni0162" unicode="&#x162;" horiz-adv-x="1579" 
 />
    <glyph glyph-name="uni0163" unicode="&#x163;" horiz-adv-x="997" 
 />
    <glyph glyph-name="Tcaron" unicode="&#x164;" horiz-adv-x="1590" 
 />
    <glyph glyph-name="tcaron" unicode="&#x165;" horiz-adv-x="971" 
 />
    <glyph glyph-name="Tbar" unicode="&#x166;" horiz-adv-x="1579" 
 />
    <glyph glyph-name="tbar" unicode="&#x167;" horiz-adv-x="971" 
 />
    <glyph glyph-name="Utilde" unicode="&#x168;" horiz-adv-x="1526" 
 />
    <glyph glyph-name="utilde" unicode="&#x169;" horiz-adv-x="1378" 
 />
    <glyph glyph-name="Umacron" unicode="&#x16a;" horiz-adv-x="1526" 
 />
    <glyph glyph-name="umacron" unicode="&#x16b;" horiz-adv-x="1378" 
 />
    <glyph glyph-name="Ubreve" unicode="&#x16c;" horiz-adv-x="1526" 
 />
    <glyph glyph-name="ubreve" unicode="&#x16d;" horiz-adv-x="1378" 
 />
    <glyph glyph-name="Uring" unicode="&#x16e;" horiz-adv-x="1526" 
 />
    <glyph glyph-name="uring" unicode="&#x16f;" horiz-adv-x="1378" 
 />
    <glyph glyph-name="Uhungarumlaut" unicode="&#x170;" horiz-adv-x="1526" 
 />
    <glyph glyph-name="uhungarumlaut" unicode="&#x171;" horiz-adv-x="1378" 
 />
    <glyph glyph-name="Uogonek" unicode="&#x172;" horiz-adv-x="1526" 
 />
    <glyph glyph-name="uogonek" unicode="&#x173;" horiz-adv-x="1378" 
 />
    <glyph glyph-name="Wcircumflex" unicode="&#x174;" horiz-adv-x="2198" 
 />
    <glyph glyph-name="wcircumflex" unicode="&#x175;" horiz-adv-x="1606" 
 />
    <glyph glyph-name="Ycircumflex" unicode="&#x176;" horiz-adv-x="1423" 
 />
    <glyph glyph-name="ycircumflex" unicode="&#x177;" horiz-adv-x="1395" 
 />
    <glyph glyph-name="Ydieresis" unicode="&#x178;" horiz-adv-x="1398" 
 />
    <glyph glyph-name="Zacute" unicode="&#x179;" horiz-adv-x="1291" 
 />
    <glyph glyph-name="zacute" unicode="&#x17a;" horiz-adv-x="1131" 
 />
    <glyph glyph-name="Zdotaccent" unicode="&#x17b;" horiz-adv-x="1264" 
 />
    <glyph glyph-name="zdotaccent" unicode="&#x17c;" horiz-adv-x="1131" 
 />
    <glyph glyph-name="Zcaron" unicode="&#x17d;" horiz-adv-x="1264" 
 />
    <glyph glyph-name="zcaron" unicode="&#x17e;" horiz-adv-x="1131" 
 />
    <glyph glyph-name="longs" unicode="&#x17f;" horiz-adv-x="821" 
 />
    <glyph glyph-name="circumflex" unicode="&#x2c6;" horiz-adv-x="713" 
d="M502 1791q36 -35 78 -84l32 -39q6 -8 14 -17l6 -8l6 -8q57 -70 23 -112t-116 0q-27 14 -63 50l-31 30q-18 19 -30 30q-75 67 -136 33q-20 -11 -43 -39l-19 -26l-18 -26q-48 -65 -96 -65q-55 0 -45 60q8 51 61 131q49 75 108 131q63 59 98 59q68 0 171 -100z" />
    <glyph glyph-name="caron" unicode="&#x2c7;" horiz-adv-x="713" 
d="M214 1582q-37 35 -78 84l-32 39q-7 8 -14 18l-7 8l-6 7q-56 70 -22 112q33 42 116 0q26 -14 63 -49l30 -31q19 -19 31 -30q74 -67 136 -33q20 11 42 39l19 26l19 26q47 65 96 65q55 0 45 -59q-9 -52 -61 -131q-50 -75 -109 -131q-63 -60 -97 -60q-69 0 -171 100z" />
    <glyph glyph-name="uni02C9" unicode="&#x2c9;" horiz-adv-x="811" 
d="M777 1576q-6 -32 -39 -51q-37 -20 -115 -20l-33 1l-31 1q-40 2 -56 2l-233 1h-128q-114 0 -114 91q0 74 60 86q21 4 57 2l31 -1l29 -1h385h22h24q28 0 48 -3q54 -8 78 -45q21 -32 15 -63z" />
    <glyph glyph-name="breve" unicode="&#x2d8;" horiz-adv-x="738" 
d="M489 1784q-12 -15 -32 -48l-17 -26l-17 -26q-42 -61 -91 -71q-93 -20 -142 74q-6 11 -12 28l-4 15l-5 15q-12 36 -29 53q-18 20 -47 22q-29 1 -50 -16q-54 -45 -17 -133q31 -71 88 -117q110 -89 266 -68q142 19 247 140q52 58 58 132q7 87 -86 83q-67 -2 -110 -57z" />
    <glyph glyph-name="dotaccent" unicode="&#x2d9;" horiz-adv-x="341" 
d="M40 1703q40 63 80 63q0 8 29 10h60q48 0 89 -59q7 -22 7 -30v-56q0 -27 -46 -93q-57 -44 -103 -46l-7 3l-6 -3q-69 0 -105.5 89t2.5 122z" />
    <glyph glyph-name="ring" unicode="&#x2da;" horiz-adv-x="448" 
d="M174 1794l-10 -15l-11 -15q-11 -18 -17 -30q-32 -71 100 -82q53 5 72 35q17 26 4 63q-12 36 -43 63q-33 30 -71 35q0 -18 -24 -54zM369 1882q52 -62 51 -142q-1 -81 -54 -135q-59 -60 -160 -60q-90 0 -141 63q-45 58 -43 141q3 83 51 143q54 66 142 70q98 -13 154 -80z
" />
    <glyph glyph-name="ogonek" unicode="&#x2db;" horiz-adv-x="449" 
d="M320 140q38 0 48 -52q0 -19 -64 -80q-49 -87 -112 -152q0 -13 -36 -76q-4 -21 -4 -40v-8q0 -48 48 -48q30 0 56 36q26 8 32 8q38 0 48 -52q0 -63 -100 -96h-56q-45 0 -100 52q-28 48 -28 72v48q0 61 52 152q108 131 108 156q69 76 80 76q16 4 28 4z" />
    <glyph glyph-name="tilde" unicode="&#x2dc;" horiz-adv-x="774" 
d="M337 1829q24 -4 50 -18l23 -13l22 -15q58 -38 94 -45q27 -5 58 7q11 4 27 12l14 6l14 7q38 17 58 -5q17 -19 15 -58q-4 -88 -107 -126q-105 -39 -185 31l-13 12l-13 12q-16 16 -27 24q-32 26 -64 27q-35 1 -65 -29q-10 -10 -24 -28l-11 -15l-11 -15q-29 -35 -65 -43
q-43 -10 -55 38q-19 77 37 147q52 65 131 84q49 13 97 3z" />
    <glyph glyph-name="hungarumlaut" unicode="&#x2dd;" horiz-adv-x="829" 
d="M706 1989q53 -11 53 -62v-27q0 -49 -141 -210.5t-171 -185.5q-17 -9 -31 -9q-42 0 -53 58q0 22 120 182q118 187 142 214q38 40 81 40zM323 1971q80 -13 80 -80v-18q0 -32 -214 -307q-34 -58 -71 -58q-49 0 -58 62q0 8 49 90l93 169q54 142 112 142h9z" />
    <glyph glyph-name="uni0400" unicode="&#x400;" horiz-adv-x="1321" 
 />
    <glyph glyph-name="uni0401" unicode="&#x401;" horiz-adv-x="1516" 
 />
    <glyph glyph-name="uni0402" unicode="&#x402;" horiz-adv-x="1863" 
 />
    <glyph glyph-name="uni0403" unicode="&#x403;" horiz-adv-x="1094" 
 />
    <glyph glyph-name="uni0404" unicode="&#x404;" horiz-adv-x="1502" 
 />
    <glyph glyph-name="uni0405" unicode="&#x405;" horiz-adv-x="1342" 
 />
    <glyph glyph-name="uni0406" unicode="&#x406;" horiz-adv-x="938" 
 />
    <glyph glyph-name="uni0407" unicode="&#x407;" horiz-adv-x="938" 
 />
    <glyph glyph-name="uni0408" unicode="&#x408;" horiz-adv-x="1253" 
 />
    <glyph glyph-name="uni0409" unicode="&#x409;" horiz-adv-x="2701" 
 />
    <glyph glyph-name="uni040A" unicode="&#x40a;" horiz-adv-x="2153" 
 />
    <glyph glyph-name="uni040B" unicode="&#x40b;" horiz-adv-x="1771" 
 />
    <glyph glyph-name="uni040C" unicode="&#x40c;" horiz-adv-x="1296" 
 />
    <glyph glyph-name="uni040D" unicode="&#x40d;" horiz-adv-x="1726" 
 />
    <glyph glyph-name="uni040E" unicode="&#x40e;" horiz-adv-x="1694" 
 />
    <glyph glyph-name="uni040F" unicode="&#x40f;" horiz-adv-x="1383" 
 />
    <glyph glyph-name="uni0410" unicode="&#x410;" horiz-adv-x="1675" 
d="M1118 796v-1q-4 -5 -4 -7q-1 -1 4 7l-3 -4l-1 -3q-38 -64 -211 -74q-63 -4 -141 0q-58 3 -117 10q-146 15 -158 132q-5 46 11 112q11 46 37 117l11 31q24 64 57 126q43 80 89 129q124 134 238 13.5t179 -281.5q79 -193 10 -307h-1zM1122 802q1 1 -4 -6q3 4 4 6zM1531 160
l-13 61q-39 184 -46 305l-7 112q-5 64 -10 112q-16 125 -49 219q-40 109 -84 204q-58 125 -122 220q-167 250 -358 271q-189 22 -329 -174q-54 -74 -102 -182q-32 -73 -70 -181q-43 -124 -93 -321l-42 -162q-24 -96 -43 -162q-33 -118 -68 -210q-8 -20 -23 -51l-13 -24
l-11 -25q-25 -57 -15 -106q22 -100 135 -113q85 -9 124 34q45 50 98 158l21 42l21 42q25 46 49 79q144 195 360 214l36 3l38 3q43 3 77 3q90 1 149 -19q76 -25 91 -120q5 -37 3 -93l-3 -50l-4 -52q-8 -128 14 -187q33 -88 143 -102q94 -13 138 44q41 54 22 146z" />
    <glyph glyph-name="uni0411" unicode="&#x411;" horiz-adv-x="1296" 
d="M793 205q-103 -40 -219 -37q-139 3 -191 94q-34 59 -52 227l-4 51q-1 32 0 60q4 73 27 104q53 72 207 51q57 -8 124 -28q49 -15 98 -35q122 -48 173 -131q59 -96 5 -214q-43 -94 -168 -142zM984 872q-93 45 -268 81q-15 3 -38 7l-21 4l-21 3q-54 10 -88 18
q-105 25 -157 68q-72 59 -60 160q14 147 141 157q88 7 221 4l111 -4q68 -3 111 -3q57 -1 90 39q31 36 31 88q0 53 -31 89q-33 41 -90 42q-34 0 -94 4l-26 1l-27 2q-34 2 -56 4q-145 8 -239 2q-288 -21 -368 -193q-53 -113 -55 -609q-1 -394 26 -674q6 -67 21 -98
q19 -43 66 -61q321 -125 626 -55q164 38 274 134q122 107 164 276q45 179 -37 323q-71 124 -206 191z" />
    <glyph glyph-name="uni0412" unicode="&#x412;" horiz-adv-x="1436" 
d="M934 274q-52 -51 -151 -79q-86 -23 -171 -21q-196 5 -242 199q-6 25 -9 43q-6 26 -9 49q-8 56 -5 100q9 115 101 143q67 21 168 12q90 -9 165 -36q98 -36 162 -126q69 -97 47 -190q-13 -52 -56 -94zM429 1370q60 33 153 31q86 -2 165 -32q82 -32 117 -78q61 -82 12 -179
q-48 -97 -148 -104q-127 -8 -250 57q-142 76 -127 193q9 75 78 112zM1067 897q78 74 121 179q92 230 -64 399q-140 152 -387 176l-44 5l-45 5q-54 5 -91 7q-104 7 -177 -4q-192 -29 -272 -195q-57 -117 -59 -601q-2 -410 28 -700q7 -69 22 -102q21 -44 71 -63
q345 -130 673 -57q176 40 294 139q131 111 177 287q47 185 -41 335q-71 121 -206 190z" />
    <glyph glyph-name="uni0413" unicode="&#x413;" horiz-adv-x="1094" 
d="M652 1609q121 12 213 4q239 -21 239 -167q1 -137 -200 -145q-36 -2 -83 0l-42 2l-40 3q-99 7 -130 2q-295 -38 -298 -339q-2 -105 33 -273l14 -70l16 -68q18 -83 26 -130l6 -29l3 -16l3 -17q8 -44 13 -78q15 -100 10 -168q-15 -198 -192 -168q-149 25 -193 353
q-15 109 -19 259q-1 45 -1 110l-1 23v21v37l-2 56l-1 58q-2 67 -1 116q3 133 24 227q57 247 272 329q45 18 130 36q101 22 201 32z" />
    <glyph glyph-name="uni0414" unicode="&#x414;" horiz-adv-x="1683" 
d="M1098 346q-24 -34 -65 -43q-15 -4 -109 -4h-19h-20h-41q-24 1 -42 3q-47 5 -80 22q-68 36 -31 137q6 18 17 41l10 21l9 19q24 49 29 69q31 128 39 295l6 551q1 18 9 44q3 32 122 27q240 7 235 -148q-3 -87 -6 -219l-4 -220q-6 -265 -19 -439q-3 -47 -8 -75
q-8 -42 -24 -69zM1609 225q-16 13 -60 30q-41 16 -63 47q-18 27 -27 78q0 44 -8 122l-6 61l-4 60q-4 45 -1 121l2 61v61q0 131 13 317l13 159l16 158q6 81 -8 144q-31 145 -297 144q-87 0 -304 -17l-49 -7l-23 -3l-22 -3q-52 -8 -74 -10q-96 -11 -131 -50q-36 -40 -39 -139
q-4 -85 -2 -215l2 -107l1 -107v-81l-1 -82q-9 -334 -172 -582q-91 -93 -143 -110q-52 -16 -65 -15q-30 2 -45 -7q-68 -40 -60 -161q1 -46 13 -99q10 -39 24 -82q38 -111 111 -20l6 9l7 10l16 23l15 22l14 22q31 52 47 64q61 52 288 64q222 13 542 -15q223 -26 256 -49
q18 -13 31 -59l2 -9l3 -10l7 -25l6 -24l4 -23q31 -116 98 -103q33 6 56 60q7 17 16 43q1 7 4 21l4 9l2 9q9 41 16 76q8 45 9 80q3 42 -6 81q-8 38 -34 58z" />
    <glyph glyph-name="uni0415" unicode="&#x415;" horiz-adv-x="1337" 
 />
    <glyph glyph-name="uni0416" unicode="&#x416;" horiz-adv-x="2070" 
 />
    <glyph glyph-name="uni0417" unicode="&#x417;" horiz-adv-x="1049" 
 />
    <glyph glyph-name="uni0418" unicode="&#x418;" horiz-adv-x="1580" 
 />
    <glyph glyph-name="uni0419" unicode="&#x419;" horiz-adv-x="1726" 
 />
    <glyph glyph-name="uni041A" unicode="&#x41a;" horiz-adv-x="1349" 
 />
    <glyph glyph-name="uni041B" unicode="&#x41b;" horiz-adv-x="1847" 
 />
    <glyph glyph-name="uni041C" unicode="&#x41c;" horiz-adv-x="2509" 
 />
    <glyph glyph-name="uni041D" unicode="&#x41d;" horiz-adv-x="1400" 
 />
    <glyph glyph-name="uni041E" unicode="&#x41e;" horiz-adv-x="1415" 
 />
    <glyph glyph-name="uni041F" unicode="&#x41f;" horiz-adv-x="1322" 
 />
    <glyph glyph-name="uni0420" unicode="&#x420;" horiz-adv-x="1264" 
 />
    <glyph glyph-name="uni0421" unicode="&#x421;" horiz-adv-x="1502" 
 />
    <glyph glyph-name="uni0422" unicode="&#x422;" horiz-adv-x="1533" 
 />
    <glyph glyph-name="uni0423" unicode="&#x423;" horiz-adv-x="1694" 
 />
    <glyph glyph-name="uni0424" unicode="&#x424;" horiz-adv-x="1740" 
 />
    <glyph glyph-name="uni0425" unicode="&#x425;" horiz-adv-x="1626" 
 />
    <glyph glyph-name="uni0426" unicode="&#x426;" horiz-adv-x="1461" 
 />
    <glyph glyph-name="uni0427" unicode="&#x427;" horiz-adv-x="1322" 
 />
    <glyph glyph-name="uni0428" unicode="&#x428;" horiz-adv-x="1596" 
 />
    <glyph glyph-name="uni0429" unicode="&#x429;" horiz-adv-x="1658" 
 />
    <glyph glyph-name="uni042A" unicode="&#x42a;" horiz-adv-x="1771" 
 />
    <glyph glyph-name="uni042B" unicode="&#x42b;" horiz-adv-x="1842" 
 />
    <glyph glyph-name="uni042C" unicode="&#x42c;" horiz-adv-x="1291" 
 />
    <glyph glyph-name="uni042D" unicode="&#x42d;" horiz-adv-x="1502" 
 />
    <glyph glyph-name="uni042E" unicode="&#x42e;" horiz-adv-x="1931" 
 />
    <glyph glyph-name="uni042F" unicode="&#x42f;" horiz-adv-x="1220" 
 />
    <glyph glyph-name="uni0430" unicode="&#x430;" horiz-adv-x="1270" 
d="M763 560q-3 0 11 3q15 3 23 5q11 2 1 -1q-159 -31 -208 36q-45 61 -9 218q2 8 7 35q2 14 4 23l5 26q14 66 31 112q49 138 129 118q42 -11 66 -80q7 -23 15 -58l3 -14l3 -13q3 -15 6 -24q5 -18 16 -54l9 -28l9 -28q19 -68 22 -112q9 -122 -108 -157q-31 -6 -35 -7z
M1101 852q-24 113 -54 203q-81 240 -205 317q-191 119 -353 -115q-57 -83 -111 -210q-19 -45 -40 -101l-16 -44l-7 -20l-7 -18l-65 -173l-67 -175q-79 -209 -121 -351q-29 -95 -1 -148q32 -59 124 -21q88 37 137 141l19 44l20 44q25 51 54 83q37 41 180 50q49 2 113 1
q21 0 48 -1h11h9q11 -1 17 -1q122 -3 169 -36q62 -44 51 -159q-1 -13 -5 -38l-3 -22l-3 -21q-7 -55 -4 -88q8 -100 104 -103q158 5 121 341q-12 104 -45 260l-13 57l-6 26l-5 25q-11 52 -15 74q-14 97 -31 179z" />
    <glyph glyph-name="uni0431" unicode="&#x431;" horiz-adv-x="1157" 
d="M772 292q-86 -57 -295 -21q-45 19 -86 74q-37 51 -49 102q-29 119 41 189q61 62 288 59q103 -2 164 -68q69 -73 40 -192q-22 -90 -103 -143zM857 952q-79 29 -178 30q-16 0 -169 -5l-24 -4l-25 -3q-60 -6 -89 17t-29 64q-1 31 15 72q29 78 170 85q114 2 183 -4l27 -2
l26 -2q29 -3 44 -4q62 -3 100 38q34 37 37 92q2 55 -29 95q-35 44 -97 47l-113 6q-64 3 -180 3q-126 -1 -224 -22q-149 -33 -204 -105q-56 -73 -49 -226l6 -126q7 -516 16 -604q14 -129 57 -216q57 -115 201 -172q136 -54 390 -25q86 18 172 67q173 98 233 283
q57 179 -13 364q-71 189 -254 257z" />
    <glyph glyph-name="uni0432" unicode="&#x432;" horiz-adv-x="1214" 
d="M867 406q-46 -49 -96 -75q-69 -37 -161 -28q-88 8 -156 53q-86 56 -95 145q-3 33 3 86l2 23l3 24q4 30 5 50q4 45 64 51q20 3 55 1l27 -1q16 -1 25 -1h44q27 1 47 0q56 -1 98 -7q114 -17 166 -77q54 -63 33 -141q-14 -49 -64 -103zM511 1254q30 1 63 -3q28 -3 49 -8
q63 -15 101 -55q47 -49 15 -102q-52 -86 -214 -134q-120 -35 -129 104q0 6 -1 17l-1 10l-1 11q-2 27 -2 47q0 58 17 79q25 31 103 34zM1092 766q-69 77 -222 151q77 120 78 238q3 141 -115 208q-157 91 -343 85q-152 -4 -218 -53q-66 -48 -116 -193q-80 -234 -108 -566
q-3 -38 -5 -61q-2 -35 -3 -65q-3 -76 3 -136q14 -157 89 -241q132 -148 400 -141q214 7 429 100q124 53 186 177q56 115 44 255q-12 146 -99 242z" />
    <glyph glyph-name="uni0433" unicode="&#x433;" horiz-adv-x="1064" 
d="M354 332q-9 82 -13 137q-6 78 -7 142q-6 352 149 445q47 28 125 27q28 -1 70 -6l36 -4l36 -4q87 -10 136 1q69 15 106 71q98 148 -51 216q-55 25 -141 37q-66 9 -136 8q-198 -2 -337 -95q-145 -99 -203 -284q-56 -179 -45 -455q2 -50 7 -116l8 -115q11 -145 12 -228
q1 -61 43 -97q38 -32 92 -32q55 0 92 32q41 36 40 97q0 48 -19 223z" />
    <glyph glyph-name="uni0434" unicode="&#x434;" horiz-adv-x="1379" 
d="M878 455q-46 -82 -158 -84q-80 -2 -112 20q-28 18 -23 58q3 29 28 86l11 25l11 25q12 30 19 53q11 32 21 75l7 38l7 39q18 101 37 151q27 72 91 68q63 -4 93 -72q21 -48 18 -143q0 -31 -3 -78l-2 -19l-2 -17q-1 -21 -2 -33q-7 -132 -41 -192zM1191 316l-11 3q1 102 5 237
l9 237q11 296 8 473q-1 40 -25 74q-26 37 -64 43q-103 15 -233 18q-51 1 -117 1l-117 -1q-52 -1 -85 -36q-30 -33 -36 -85q-64 -549 -312 -949l-3 -7l-3 -6h-33l-33 -1q-52 0 -84 -36q-31 -32 -37 -84q-5 -46 -12 -134l-5 -67l-7 -67q-8 -70 52 -102q58 -29 119 3
q36 18 56 54q8 14 15 34l6 17l5 17q15 44 31 66q24 33 68 48q57 20 149 29q31 3 78 6l38 2l36 2l12 1l14 1q16 1 29 2q38 2 70 3q90 2 157 -9q191 -29 191 -156q0 -55 37 -88q34 -29 83 -29q49 1 83 30q38 32 38 87v30v30q1 35 0 57q-2 62 -14 103q-29 103 -146 146z" />
    <glyph glyph-name="uni0435" unicode="&#x435;" 
 />
    <glyph glyph-name="uni0436" unicode="&#x436;" horiz-adv-x="1683" 
 />
    <glyph glyph-name="uni0437" unicode="&#x437;" horiz-adv-x="1038" 
 />
    <glyph glyph-name="uni0438" unicode="&#x438;" horiz-adv-x="1322" 
 />
    <glyph glyph-name="uni0439" unicode="&#x439;" horiz-adv-x="1322" 
 />
    <glyph glyph-name="uni043A" unicode="&#x43a;" horiz-adv-x="1271" 
 />
    <glyph glyph-name="uni043B" unicode="&#x43b;" horiz-adv-x="1465" 
 />
    <glyph glyph-name="uni043C" unicode="&#x43c;" horiz-adv-x="1462" 
 />
    <glyph glyph-name="uni043D" unicode="&#x43d;" horiz-adv-x="1069" 
 />
    <glyph glyph-name="uni043E" unicode="&#x43e;" horiz-adv-x="1190" 
 />
    <glyph glyph-name="uni043F" unicode="&#x43f;" horiz-adv-x="1256" 
 />
    <glyph glyph-name="uni0440" unicode="&#x440;" horiz-adv-x="1162" 
 />
    <glyph glyph-name="uni0441" unicode="&#x441;" horiz-adv-x="1288" 
 />
    <glyph glyph-name="uni0442" unicode="&#x442;" horiz-adv-x="997" 
 />
    <glyph glyph-name="uni0443" unicode="&#x443;" horiz-adv-x="1447" 
 />
    <glyph glyph-name="uni0444" unicode="&#x444;" horiz-adv-x="1373" 
 />
    <glyph glyph-name="uni0445" unicode="&#x445;" horiz-adv-x="1394" 
 />
    <glyph glyph-name="uni0446" unicode="&#x446;" horiz-adv-x="1260" 
 />
    <glyph glyph-name="uni0447" unicode="&#x447;" horiz-adv-x="1110" 
 />
    <glyph glyph-name="uni0448" unicode="&#x448;" horiz-adv-x="1410" 
 />
    <glyph glyph-name="uni0449" unicode="&#x449;" horiz-adv-x="1502" 
 />
    <glyph glyph-name="uni044A" unicode="&#x44a;" horiz-adv-x="1518" 
 />
    <glyph glyph-name="uni044B" unicode="&#x44b;" horiz-adv-x="1517" 
 />
    <glyph glyph-name="uni044C" unicode="&#x44c;" horiz-adv-x="1063" 
 />
    <glyph glyph-name="uni044D" unicode="&#x44d;" horiz-adv-x="1260" 
 />
    <glyph glyph-name="uni044E" unicode="&#x44e;" horiz-adv-x="1828" 
 />
    <glyph glyph-name="uni044F" unicode="&#x44f;" horiz-adv-x="1070" 
 />
    <glyph glyph-name="uni0450" unicode="&#x450;" 
 />
    <glyph glyph-name="uni0451" unicode="&#x451;" 
 />
    <glyph glyph-name="uni0452" unicode="&#x452;" horiz-adv-x="1686" 
 />
    <glyph glyph-name="uni0453" unicode="&#x453;" horiz-adv-x="1064" 
 />
    <glyph glyph-name="uni0454" unicode="&#x454;" horiz-adv-x="1252" 
 />
    <glyph glyph-name="uni0455" unicode="&#x455;" horiz-adv-x="1073" 
 />
    <glyph glyph-name="uni0456" unicode="&#x456;" horiz-adv-x="442" 
 />
    <glyph glyph-name="uni0457" unicode="&#x457;" horiz-adv-x="460" 
 />
    <glyph glyph-name="uni0458" unicode="&#x458;" horiz-adv-x="1008" 
 />
    <glyph glyph-name="uni0459" unicode="&#x459;" horiz-adv-x="2014" 
 />
    <glyph glyph-name="uni045A" unicode="&#x45a;" horiz-adv-x="1879" 
 />
    <glyph glyph-name="uni045B" unicode="&#x45b;" horiz-adv-x="1595" 
 />
    <glyph glyph-name="uni045C" unicode="&#x45c;" horiz-adv-x="1250" 
 />
    <glyph glyph-name="uni045D" unicode="&#x45d;" horiz-adv-x="1198" 
 />
    <glyph glyph-name="uni045E" unicode="&#x45e;" horiz-adv-x="1447" 
 />
    <glyph glyph-name="uni045F" unicode="&#x45f;" horiz-adv-x="1110" 
 />
    <glyph glyph-name="uni0490" unicode="&#x490;" horiz-adv-x="1087" 
 />
    <glyph glyph-name="uni0491" unicode="&#x491;" horiz-adv-x="986" 
 />
    <glyph glyph-name="Wgrave" unicode="&#x1e80;" horiz-adv-x="2198" 
 />
    <glyph glyph-name="wgrave" unicode="&#x1e81;" horiz-adv-x="1606" 
 />
    <glyph glyph-name="Wacute" unicode="&#x1e82;" horiz-adv-x="2198" 
 />
    <glyph glyph-name="wacute" unicode="&#x1e83;" horiz-adv-x="1606" 
 />
    <glyph glyph-name="Ygrave" unicode="&#x1ef2;" horiz-adv-x="1414" 
 />
    <glyph glyph-name="ygrave" unicode="&#x1ef3;" horiz-adv-x="1266" 
 />
    <glyph glyph-name="endash" unicode="&#x2013;" horiz-adv-x="1146" 
 />
    <glyph glyph-name="emdash" unicode="&#x2014;" horiz-adv-x="1435" 
 />
    <glyph glyph-name="quoteleft" unicode="&#x2018;" horiz-adv-x="407" 
 />
    <glyph glyph-name="quoteright" unicode="&#x2019;" horiz-adv-x="407" 
 />
    <glyph glyph-name="quotesinglbase" unicode="&#x201a;" horiz-adv-x="422" 
 />
    <glyph glyph-name="quotedblleft" unicode="&#x201c;" horiz-adv-x="742" 
 />
    <glyph glyph-name="quotedblright" unicode="&#x201d;" horiz-adv-x="675" 
 />
    <glyph glyph-name="quotedblbase" unicode="&#x201e;" horiz-adv-x="675" 
 />
    <glyph glyph-name="dagger" unicode="&#x2020;" horiz-adv-x="774" 
 />
    <glyph glyph-name="daggerdbl" unicode="&#x2021;" horiz-adv-x="795" 
 />
    <glyph glyph-name="bullet" unicode="&#x2022;" horiz-adv-x="511" 
 />
    <glyph glyph-name="ellipsis" unicode="&#x2026;" horiz-adv-x="1735" 
 />
    <glyph glyph-name="perthousand" unicode="&#x2030;" horiz-adv-x="2045" 
 />
    <glyph glyph-name="guilsinglleft" unicode="&#x2039;" horiz-adv-x="454" 
 />
    <glyph glyph-name="guilsinglright" unicode="&#x203a;" horiz-adv-x="454" 
 />
    <glyph glyph-name="fraction" unicode="&#x2044;" horiz-adv-x="1022" 
 />
    <glyph glyph-name="fraction" unicode="&#x2215;" horiz-adv-x="1022" 
 />
    <glyph glyph-name="franc" unicode="&#x20a3;" horiz-adv-x="1306" 
 />
    <glyph glyph-name="peseta" unicode="&#x20a7;" horiz-adv-x="2556" 
 />
    <glyph glyph-name="Euro" unicode="&#x20ac;" horiz-adv-x="1047" 
 />
    <glyph glyph-name="trademark" unicode="&#x2122;" horiz-adv-x="1182" 
 />
    <glyph glyph-name="minus" unicode="&#x2212;" horiz-adv-x="986" 
 />
    <glyph glyph-name="lessequal" unicode="&#x2264;" horiz-adv-x="1167" 
 />
    <glyph glyph-name="greaterequal" unicode="&#x2265;" horiz-adv-x="1131" 
 />
    <glyph glyph-name="_452" horiz-adv-x="2144" 
 />
    </font>
</defs>
</svg>
